<mxfile host="app.diagrams.net" agent="Mozilla/5.0 (Macintosh; Intel Mac OS X 10_15_7) AppleWebKit/537.36 (KHTML, like Gecko) Chrome/128.0.0.0 Safari/537.36" version="24.7.16" pages="7">
  <diagram name="Usecase" id="b8AXuWcvParX6ATXbOUP">
    <mxGraphModel dx="964" dy="539" grid="1" gridSize="10" guides="1" tooltips="1" connect="1" arrows="1" fold="1" page="1" pageScale="1" pageWidth="850" pageHeight="1100" math="0" shadow="0">
      <root>
        <mxCell id="0" />
        <mxCell id="1" parent="0" />
        <mxCell id="Y9FigPxtaykierwcNPQT-2" value="" style="swimlane;startSize=0;" parent="1" vertex="1">
          <mxGeometry x="250" y="90" width="340" height="350" as="geometry">
            <mxRectangle x="250" y="90" width="50" height="40" as="alternateBounds" />
          </mxGeometry>
        </mxCell>
        <mxCell id="Y9FigPxtaykierwcNPQT-14" style="edgeStyle=orthogonalEdgeStyle;rounded=0;orthogonalLoop=1;jettySize=auto;html=1;entryX=0;entryY=0.5;entryDx=0;entryDy=0;" parent="Y9FigPxtaykierwcNPQT-2" source="Y9FigPxtaykierwcNPQT-5" target="Y9FigPxtaykierwcNPQT-13" edge="1">
          <mxGeometry relative="1" as="geometry" />
        </mxCell>
        <mxCell id="Y9FigPxtaykierwcNPQT-15" style="edgeStyle=orthogonalEdgeStyle;rounded=0;orthogonalLoop=1;jettySize=auto;html=1;entryX=1;entryY=0.5;entryDx=0;entryDy=0;" parent="Y9FigPxtaykierwcNPQT-2" source="Y9FigPxtaykierwcNPQT-5" target="Y9FigPxtaykierwcNPQT-11" edge="1">
          <mxGeometry relative="1" as="geometry" />
        </mxCell>
        <mxCell id="Y9FigPxtaykierwcNPQT-5" value="Create" style="ellipse;whiteSpace=wrap;html=1;" parent="Y9FigPxtaykierwcNPQT-2" vertex="1">
          <mxGeometry x="130" y="70" width="80" height="50" as="geometry" />
        </mxCell>
        <mxCell id="Y9FigPxtaykierwcNPQT-18" style="edgeStyle=orthogonalEdgeStyle;rounded=0;orthogonalLoop=1;jettySize=auto;html=1;entryX=0;entryY=0.5;entryDx=0;entryDy=0;" parent="Y9FigPxtaykierwcNPQT-2" source="Y9FigPxtaykierwcNPQT-6" target="Y9FigPxtaykierwcNPQT-17" edge="1">
          <mxGeometry relative="1" as="geometry" />
        </mxCell>
        <mxCell id="Y9FigPxtaykierwcNPQT-6" value="Read" style="ellipse;whiteSpace=wrap;html=1;" parent="Y9FigPxtaykierwcNPQT-2" vertex="1">
          <mxGeometry x="130" y="140" width="80" height="50" as="geometry" />
        </mxCell>
        <mxCell id="Y9FigPxtaykierwcNPQT-7" value="Update" style="ellipse;whiteSpace=wrap;html=1;" parent="Y9FigPxtaykierwcNPQT-2" vertex="1">
          <mxGeometry x="130" y="210" width="80" height="50" as="geometry" />
        </mxCell>
        <mxCell id="Y9FigPxtaykierwcNPQT-8" value="Delete" style="ellipse;whiteSpace=wrap;html=1;" parent="Y9FigPxtaykierwcNPQT-2" vertex="1">
          <mxGeometry x="130" y="280" width="80" height="50" as="geometry" />
        </mxCell>
        <mxCell id="Y9FigPxtaykierwcNPQT-11" value="Patient" style="ellipse;whiteSpace=wrap;html=1;" parent="Y9FigPxtaykierwcNPQT-2" vertex="1">
          <mxGeometry x="80" y="10" width="50" height="40" as="geometry" />
        </mxCell>
        <mxCell id="Y9FigPxtaykierwcNPQT-13" value="Room" style="ellipse;whiteSpace=wrap;html=1;" parent="Y9FigPxtaykierwcNPQT-2" vertex="1">
          <mxGeometry x="200" y="10" width="50" height="40" as="geometry" />
        </mxCell>
        <mxCell id="Y9FigPxtaykierwcNPQT-21" value="" style="edgeStyle=orthogonalEdgeStyle;rounded=0;orthogonalLoop=1;jettySize=auto;html=1;" parent="Y9FigPxtaykierwcNPQT-2" source="Y9FigPxtaykierwcNPQT-17" target="Y9FigPxtaykierwcNPQT-20" edge="1">
          <mxGeometry relative="1" as="geometry" />
        </mxCell>
        <mxCell id="Y9FigPxtaykierwcNPQT-17" value="Patient_id" style="ellipse;whiteSpace=wrap;html=1;" parent="Y9FigPxtaykierwcNPQT-2" vertex="1">
          <mxGeometry x="240" y="120" width="60" height="40" as="geometry" />
        </mxCell>
        <mxCell id="Y9FigPxtaykierwcNPQT-20" value="&lt;font style=&quot;font-size: 9px;&quot;&gt;Name,Room,Status&lt;/font&gt;" style="ellipse;whiteSpace=wrap;html=1;" parent="Y9FigPxtaykierwcNPQT-2" vertex="1">
          <mxGeometry x="225" y="170" width="90" height="40" as="geometry" />
        </mxCell>
        <mxCell id="Y9FigPxtaykierwcNPQT-24" value="" style="endArrow=classic;html=1;rounded=0;exitX=0;exitY=0.5;exitDx=0;exitDy=0;entryX=0.5;entryY=1;entryDx=0;entryDy=0;" parent="Y9FigPxtaykierwcNPQT-2" source="Y9FigPxtaykierwcNPQT-6" target="Y9FigPxtaykierwcNPQT-11" edge="1">
          <mxGeometry width="50" height="50" relative="1" as="geometry">
            <mxPoint x="190" y="180" as="sourcePoint" />
            <mxPoint x="240" y="130" as="targetPoint" />
          </mxGeometry>
        </mxCell>
        <mxCell id="Y9FigPxtaykierwcNPQT-25" value="" style="endArrow=classic;html=1;rounded=0;exitX=0;exitY=0.5;exitDx=0;exitDy=0;entryX=0.5;entryY=1;entryDx=0;entryDy=0;" parent="Y9FigPxtaykierwcNPQT-2" target="Y9FigPxtaykierwcNPQT-13" edge="1">
          <mxGeometry width="50" height="50" relative="1" as="geometry">
            <mxPoint x="210" y="160" as="sourcePoint" />
            <mxPoint x="185" y="45" as="targetPoint" />
          </mxGeometry>
        </mxCell>
        <mxCell id="Y9FigPxtaykierwcNPQT-29" value="" style="endArrow=classic;html=1;rounded=0;exitX=0;exitY=0.5;exitDx=0;exitDy=0;entryX=0.285;entryY=0.996;entryDx=0;entryDy=0;entryPerimeter=0;" parent="Y9FigPxtaykierwcNPQT-2" target="Y9FigPxtaykierwcNPQT-11" edge="1">
          <mxGeometry width="50" height="50" relative="1" as="geometry">
            <mxPoint x="130" y="235" as="sourcePoint" />
            <mxPoint x="105" y="120" as="targetPoint" />
            <Array as="points">
              <mxPoint x="80" y="190" />
            </Array>
          </mxGeometry>
        </mxCell>
        <mxCell id="Y9FigPxtaykierwcNPQT-30" value="" style="endArrow=classic;html=1;rounded=0;exitX=0;exitY=0.5;exitDx=0;exitDy=0;entryX=0.6;entryY=1;entryDx=0;entryDy=0;entryPerimeter=0;" parent="Y9FigPxtaykierwcNPQT-2" target="Y9FigPxtaykierwcNPQT-13" edge="1">
          <mxGeometry width="50" height="50" relative="1" as="geometry">
            <mxPoint x="211" y="235" as="sourcePoint" />
            <mxPoint x="175" y="50" as="targetPoint" />
            <Array as="points">
              <mxPoint x="220" y="200" />
            </Array>
          </mxGeometry>
        </mxCell>
        <mxCell id="Y9FigPxtaykierwcNPQT-32" value="" style="endArrow=classic;html=1;rounded=0;exitX=0;exitY=0.5;exitDx=0;exitDy=0;entryX=0;entryY=1;entryDx=0;entryDy=0;" parent="Y9FigPxtaykierwcNPQT-2" target="Y9FigPxtaykierwcNPQT-11" edge="1">
          <mxGeometry width="50" height="50" relative="1" as="geometry">
            <mxPoint x="130" y="305" as="sourcePoint" />
            <mxPoint x="94" y="120" as="targetPoint" />
            <Array as="points">
              <mxPoint x="40" y="260" />
            </Array>
          </mxGeometry>
        </mxCell>
        <mxCell id="Y9FigPxtaykierwcNPQT-33" value="" style="endArrow=classic;html=1;rounded=0;exitX=1;exitY=0.5;exitDx=0;exitDy=0;entryX=0.323;entryY=1.032;entryDx=0;entryDy=0;entryPerimeter=0;" parent="Y9FigPxtaykierwcNPQT-2" source="Y9FigPxtaykierwcNPQT-8" target="Y9FigPxtaykierwcNPQT-13" edge="1">
          <mxGeometry width="50" height="50" relative="1" as="geometry">
            <mxPoint x="140" y="315" as="sourcePoint" />
            <mxPoint x="97" y="54" as="targetPoint" />
            <Array as="points">
              <mxPoint x="230" y="270" />
            </Array>
          </mxGeometry>
        </mxCell>
        <mxCell id="Y9FigPxtaykierwcNPQT-34" value="FIlter &amp;amp; sort" style="text;html=1;align=center;verticalAlign=middle;whiteSpace=wrap;rounded=0;" parent="Y9FigPxtaykierwcNPQT-2" vertex="1">
          <mxGeometry x="80" y="120" width="60" height="30" as="geometry" />
        </mxCell>
        <mxCell id="Y9FigPxtaykierwcNPQT-35" value="Filter" style="text;html=1;align=center;verticalAlign=middle;whiteSpace=wrap;rounded=0;" parent="Y9FigPxtaykierwcNPQT-2" vertex="1">
          <mxGeometry x="270" y="150" width="60" height="30" as="geometry" />
        </mxCell>
        <mxCell id="Y9FigPxtaykierwcNPQT-10" style="edgeStyle=orthogonalEdgeStyle;rounded=0;orthogonalLoop=1;jettySize=auto;html=1;entryX=0;entryY=0.5;entryDx=0;entryDy=0;" parent="1" source="Y9FigPxtaykierwcNPQT-3" target="Y9FigPxtaykierwcNPQT-5" edge="1">
          <mxGeometry relative="1" as="geometry" />
        </mxCell>
        <mxCell id="Y9FigPxtaykierwcNPQT-26" style="edgeStyle=orthogonalEdgeStyle;rounded=0;orthogonalLoop=1;jettySize=auto;html=1;entryX=0;entryY=0.5;entryDx=0;entryDy=0;" parent="1" source="Y9FigPxtaykierwcNPQT-3" target="Y9FigPxtaykierwcNPQT-6" edge="1">
          <mxGeometry relative="1" as="geometry" />
        </mxCell>
        <mxCell id="Y9FigPxtaykierwcNPQT-27" style="edgeStyle=orthogonalEdgeStyle;rounded=0;orthogonalLoop=1;jettySize=auto;html=1;entryX=0;entryY=0.5;entryDx=0;entryDy=0;" parent="1" source="Y9FigPxtaykierwcNPQT-3" target="Y9FigPxtaykierwcNPQT-7" edge="1">
          <mxGeometry relative="1" as="geometry" />
        </mxCell>
        <mxCell id="Y9FigPxtaykierwcNPQT-28" style="edgeStyle=orthogonalEdgeStyle;rounded=0;orthogonalLoop=1;jettySize=auto;html=1;entryX=0;entryY=0.5;entryDx=0;entryDy=0;" parent="1" source="Y9FigPxtaykierwcNPQT-3" target="Y9FigPxtaykierwcNPQT-8" edge="1">
          <mxGeometry relative="1" as="geometry" />
        </mxCell>
        <mxCell id="Y9FigPxtaykierwcNPQT-3" value="Admin" style="shape=umlActor;verticalLabelPosition=bottom;verticalAlign=top;html=1;outlineConnect=0;" parent="1" vertex="1">
          <mxGeometry x="140" y="250" width="30" height="60" as="geometry" />
        </mxCell>
        <mxCell id="Y9FigPxtaykierwcNPQT-19" style="edgeStyle=orthogonalEdgeStyle;rounded=0;orthogonalLoop=1;jettySize=auto;html=1;entryX=1;entryY=0.5;entryDx=0;entryDy=0;" parent="1" source="Y9FigPxtaykierwcNPQT-4" target="Y9FigPxtaykierwcNPQT-17" edge="1">
          <mxGeometry relative="1" as="geometry" />
        </mxCell>
        <mxCell id="Y9FigPxtaykierwcNPQT-4" value="Patient Family" style="shape=umlActor;verticalLabelPosition=bottom;verticalAlign=top;html=1;outlineConnect=0;" parent="1" vertex="1">
          <mxGeometry x="640" y="250" width="30" height="60" as="geometry" />
        </mxCell>
      </root>
    </mxGraphModel>
  </diagram>
  <diagram id="m8-y487iArBeyhjxkith" name="Main Flow Chart">
    <mxGraphModel dx="1997" dy="1117" grid="1" gridSize="10" guides="1" tooltips="1" connect="1" arrows="1" fold="1" page="1" pageScale="1" pageWidth="850" pageHeight="1100" math="0" shadow="0">
      <root>
        <mxCell id="0" />
        <mxCell id="1" parent="0" />
        <mxCell id="XXEJRpqNJzU3Wcr4bTiC-5" value="" style="edgeStyle=orthogonalEdgeStyle;rounded=0;orthogonalLoop=1;jettySize=auto;html=1;" edge="1" parent="1" source="XXEJRpqNJzU3Wcr4bTiC-1" target="XXEJRpqNJzU3Wcr4bTiC-4">
          <mxGeometry relative="1" as="geometry" />
        </mxCell>
        <mxCell id="XXEJRpqNJzU3Wcr4bTiC-1" value="Start" style="ellipse;whiteSpace=wrap;html=1;" vertex="1" parent="1">
          <mxGeometry x="205" y="20" width="120" height="80" as="geometry" />
        </mxCell>
        <mxCell id="XXEJRpqNJzU3Wcr4bTiC-7" value="" style="edgeStyle=orthogonalEdgeStyle;rounded=0;orthogonalLoop=1;jettySize=auto;html=1;" edge="1" parent="1" source="XXEJRpqNJzU3Wcr4bTiC-4" target="XXEJRpqNJzU3Wcr4bTiC-6">
          <mxGeometry relative="1" as="geometry" />
        </mxCell>
        <mxCell id="XXEJRpqNJzU3Wcr4bTiC-4" value="Menu" style="whiteSpace=wrap;html=1;" vertex="1" parent="1">
          <mxGeometry x="205" y="140" width="120" height="60" as="geometry" />
        </mxCell>
        <mxCell id="XXEJRpqNJzU3Wcr4bTiC-11" value="" style="edgeStyle=orthogonalEdgeStyle;rounded=0;orthogonalLoop=1;jettySize=auto;html=1;" edge="1" parent="1" source="XXEJRpqNJzU3Wcr4bTiC-6" target="XXEJRpqNJzU3Wcr4bTiC-10">
          <mxGeometry relative="1" as="geometry" />
        </mxCell>
        <mxCell id="XXEJRpqNJzU3Wcr4bTiC-24" value="" style="edgeStyle=orthogonalEdgeStyle;rounded=0;orthogonalLoop=1;jettySize=auto;html=1;" edge="1" parent="1" source="XXEJRpqNJzU3Wcr4bTiC-6" target="XXEJRpqNJzU3Wcr4bTiC-23">
          <mxGeometry relative="1" as="geometry" />
        </mxCell>
        <mxCell id="XXEJRpqNJzU3Wcr4bTiC-6" value="Admin" style="rhombus;whiteSpace=wrap;html=1;" vertex="1" parent="1">
          <mxGeometry x="225" y="250" width="80" height="80" as="geometry" />
        </mxCell>
        <mxCell id="-X8nthBePjr7AiujhFly-3" value="" style="edgeStyle=orthogonalEdgeStyle;rounded=0;orthogonalLoop=1;jettySize=auto;html=1;" edge="1" parent="1" source="XXEJRpqNJzU3Wcr4bTiC-10" target="-X8nthBePjr7AiujhFly-2">
          <mxGeometry relative="1" as="geometry" />
        </mxCell>
        <mxCell id="-X8nthBePjr7AiujhFly-6" value="" style="edgeStyle=orthogonalEdgeStyle;rounded=0;orthogonalLoop=1;jettySize=auto;html=1;" edge="1" parent="1" source="XXEJRpqNJzU3Wcr4bTiC-10" target="-X8nthBePjr7AiujhFly-5">
          <mxGeometry relative="1" as="geometry" />
        </mxCell>
        <mxCell id="-X8nthBePjr7AiujhFly-8" value="" style="edgeStyle=orthogonalEdgeStyle;rounded=0;orthogonalLoop=1;jettySize=auto;html=1;" edge="1" parent="1" source="XXEJRpqNJzU3Wcr4bTiC-10" target="-X8nthBePjr7AiujhFly-7">
          <mxGeometry relative="1" as="geometry" />
        </mxCell>
        <mxCell id="-X8nthBePjr7AiujhFly-9" value="" style="edgeStyle=orthogonalEdgeStyle;rounded=0;orthogonalLoop=1;jettySize=auto;html=1;" edge="1" parent="1" source="XXEJRpqNJzU3Wcr4bTiC-10" target="-X8nthBePjr7AiujhFly-7">
          <mxGeometry relative="1" as="geometry" />
        </mxCell>
        <mxCell id="-X8nthBePjr7AiujhFly-11" value="" style="edgeStyle=orthogonalEdgeStyle;rounded=0;orthogonalLoop=1;jettySize=auto;html=1;" edge="1" parent="1" source="XXEJRpqNJzU3Wcr4bTiC-10" target="-X8nthBePjr7AiujhFly-10">
          <mxGeometry relative="1" as="geometry" />
        </mxCell>
        <mxCell id="XXEJRpqNJzU3Wcr4bTiC-10" value="Admin Menu" style="whiteSpace=wrap;html=1;" vertex="1" parent="1">
          <mxGeometry x="390" y="260" width="120" height="60" as="geometry" />
        </mxCell>
        <mxCell id="XXEJRpqNJzU3Wcr4bTiC-15" value="Yes" style="text;html=1;align=center;verticalAlign=middle;resizable=0;points=[];autosize=1;strokeColor=none;fillColor=none;" vertex="1" parent="1">
          <mxGeometry x="350" y="258" width="40" height="30" as="geometry" />
        </mxCell>
        <mxCell id="XXEJRpqNJzU3Wcr4bTiC-35" value="" style="edgeStyle=orthogonalEdgeStyle;rounded=0;orthogonalLoop=1;jettySize=auto;html=1;" edge="1" parent="1" source="XXEJRpqNJzU3Wcr4bTiC-21" target="XXEJRpqNJzU3Wcr4bTiC-34">
          <mxGeometry relative="1" as="geometry" />
        </mxCell>
        <mxCell id="XXEJRpqNJzU3Wcr4bTiC-21" value="Patient Family Menu" style="whiteSpace=wrap;html=1;" vertex="1" parent="1">
          <mxGeometry x="430" y="424" width="120" height="60" as="geometry" />
        </mxCell>
        <mxCell id="XXEJRpqNJzU3Wcr4bTiC-28" style="edgeStyle=orthogonalEdgeStyle;rounded=0;orthogonalLoop=1;jettySize=auto;html=1;entryX=0.5;entryY=0;entryDx=0;entryDy=0;" edge="1" parent="1" source="XXEJRpqNJzU3Wcr4bTiC-23" target="XXEJRpqNJzU3Wcr4bTiC-27">
          <mxGeometry relative="1" as="geometry" />
        </mxCell>
        <mxCell id="XXEJRpqNJzU3Wcr4bTiC-23" value="Patient Fam" style="rhombus;whiteSpace=wrap;html=1;" vertex="1" parent="1">
          <mxGeometry x="225" y="410" width="80" height="80" as="geometry" />
        </mxCell>
        <mxCell id="XXEJRpqNJzU3Wcr4bTiC-25" style="edgeStyle=orthogonalEdgeStyle;rounded=0;orthogonalLoop=1;jettySize=auto;html=1;entryX=-0.008;entryY=0.438;entryDx=0;entryDy=0;entryPerimeter=0;" edge="1" parent="1" source="XXEJRpqNJzU3Wcr4bTiC-23" target="XXEJRpqNJzU3Wcr4bTiC-21">
          <mxGeometry relative="1" as="geometry" />
        </mxCell>
        <mxCell id="XXEJRpqNJzU3Wcr4bTiC-27" value="Exit" style="ellipse;whiteSpace=wrap;html=1;" vertex="1" parent="1">
          <mxGeometry x="205" y="530" width="120" height="80" as="geometry" />
        </mxCell>
        <mxCell id="XXEJRpqNJzU3Wcr4bTiC-29" value="No" style="text;html=1;align=center;verticalAlign=middle;resizable=0;points=[];autosize=1;strokeColor=none;fillColor=none;" vertex="1" parent="1">
          <mxGeometry x="265" y="350" width="40" height="30" as="geometry" />
        </mxCell>
        <mxCell id="XXEJRpqNJzU3Wcr4bTiC-30" value="Yes" style="text;html=1;align=center;verticalAlign=middle;resizable=0;points=[];autosize=1;strokeColor=none;fillColor=none;" vertex="1" parent="1">
          <mxGeometry x="340" y="420" width="40" height="30" as="geometry" />
        </mxCell>
        <mxCell id="XXEJRpqNJzU3Wcr4bTiC-31" value="No" style="text;html=1;align=center;verticalAlign=middle;resizable=0;points=[];autosize=1;strokeColor=none;fillColor=none;" vertex="1" parent="1">
          <mxGeometry x="265" y="484" width="40" height="30" as="geometry" />
        </mxCell>
        <mxCell id="XXEJRpqNJzU3Wcr4bTiC-34" value="E" style="ellipse;whiteSpace=wrap;html=1;" vertex="1" parent="1">
          <mxGeometry x="580" y="414" width="80" height="80" as="geometry" />
        </mxCell>
        <mxCell id="XXEJRpqNJzU3Wcr4bTiC-37" style="edgeStyle=orthogonalEdgeStyle;rounded=0;orthogonalLoop=1;jettySize=auto;html=1;entryX=0;entryY=0.5;entryDx=0;entryDy=0;" edge="1" parent="1" source="XXEJRpqNJzU3Wcr4bTiC-36" target="XXEJRpqNJzU3Wcr4bTiC-4">
          <mxGeometry relative="1" as="geometry" />
        </mxCell>
        <mxCell id="XXEJRpqNJzU3Wcr4bTiC-36" value="F" style="ellipse;whiteSpace=wrap;html=1;" vertex="1" parent="1">
          <mxGeometry x="30" y="130" width="80" height="80" as="geometry" />
        </mxCell>
        <mxCell id="-X8nthBePjr7AiujhFly-13" value="" style="edgeStyle=orthogonalEdgeStyle;rounded=0;orthogonalLoop=1;jettySize=auto;html=1;" edge="1" parent="1" source="-X8nthBePjr7AiujhFly-2" target="-X8nthBePjr7AiujhFly-12">
          <mxGeometry relative="1" as="geometry" />
        </mxCell>
        <mxCell id="-X8nthBePjr7AiujhFly-2" value="Create" style="whiteSpace=wrap;html=1;" vertex="1" parent="1">
          <mxGeometry x="510" y="60" width="120" height="60" as="geometry" />
        </mxCell>
        <mxCell id="-X8nthBePjr7AiujhFly-15" value="" style="edgeStyle=orthogonalEdgeStyle;rounded=0;orthogonalLoop=1;jettySize=auto;html=1;" edge="1" parent="1" source="-X8nthBePjr7AiujhFly-5" target="-X8nthBePjr7AiujhFly-14">
          <mxGeometry relative="1" as="geometry" />
        </mxCell>
        <mxCell id="-X8nthBePjr7AiujhFly-5" value="Read" style="whiteSpace=wrap;html=1;" vertex="1" parent="1">
          <mxGeometry x="590" y="160" width="120" height="60" as="geometry" />
        </mxCell>
        <mxCell id="-X8nthBePjr7AiujhFly-21" value="" style="edgeStyle=orthogonalEdgeStyle;rounded=0;orthogonalLoop=1;jettySize=auto;html=1;" edge="1" parent="1" source="-X8nthBePjr7AiujhFly-7" target="-X8nthBePjr7AiujhFly-20">
          <mxGeometry relative="1" as="geometry" />
        </mxCell>
        <mxCell id="-X8nthBePjr7AiujhFly-7" value="Delete" style="whiteSpace=wrap;html=1;" vertex="1" parent="1">
          <mxGeometry x="500" y="335" width="120" height="60" as="geometry" />
        </mxCell>
        <mxCell id="-X8nthBePjr7AiujhFly-17" value="" style="edgeStyle=orthogonalEdgeStyle;rounded=0;orthogonalLoop=1;jettySize=auto;html=1;" edge="1" parent="1" source="-X8nthBePjr7AiujhFly-10" target="-X8nthBePjr7AiujhFly-16">
          <mxGeometry relative="1" as="geometry" />
        </mxCell>
        <mxCell id="-X8nthBePjr7AiujhFly-10" value="Update" style="whiteSpace=wrap;html=1;" vertex="1" parent="1">
          <mxGeometry x="680" y="258" width="120" height="60" as="geometry" />
        </mxCell>
        <mxCell id="-X8nthBePjr7AiujhFly-12" value="a" style="ellipse;whiteSpace=wrap;html=1;" vertex="1" parent="1">
          <mxGeometry x="670" y="30" width="80" height="80" as="geometry" />
        </mxCell>
        <mxCell id="-X8nthBePjr7AiujhFly-14" value="B" style="ellipse;whiteSpace=wrap;html=1;" vertex="1" parent="1">
          <mxGeometry x="750" y="150" width="80" height="80" as="geometry" />
        </mxCell>
        <mxCell id="-X8nthBePjr7AiujhFly-16" value="C" style="ellipse;whiteSpace=wrap;html=1;" vertex="1" parent="1">
          <mxGeometry x="740" y="370" width="80" height="80" as="geometry" />
        </mxCell>
        <mxCell id="-X8nthBePjr7AiujhFly-20" value="D" style="ellipse;whiteSpace=wrap;html=1;" vertex="1" parent="1">
          <mxGeometry x="640" y="330" width="80" height="80" as="geometry" />
        </mxCell>
      </root>
    </mxGraphModel>
  </diagram>
  <diagram id="iaLH7_X8vUFf0CGwfGtg" name="Flowchart Read Actor Patient">
    <mxGraphModel dx="1398" dy="782" grid="1" gridSize="10" guides="1" tooltips="1" connect="1" arrows="1" fold="1" page="1" pageScale="1" pageWidth="850" pageHeight="1100" math="0" shadow="0">
      <root>
        <mxCell id="0" />
        <mxCell id="1" parent="0" />
        <mxCell id="RnMqkkJ-I_OzIbfLoQR5-3" value="" style="edgeStyle=orthogonalEdgeStyle;rounded=0;orthogonalLoop=1;jettySize=auto;html=1;" edge="1" parent="1" source="RnMqkkJ-I_OzIbfLoQR5-1" target="RnMqkkJ-I_OzIbfLoQR5-2">
          <mxGeometry relative="1" as="geometry" />
        </mxCell>
        <mxCell id="RnMqkkJ-I_OzIbfLoQR5-1" value="E" style="ellipse;whiteSpace=wrap;html=1;aspect=fixed;" vertex="1" parent="1">
          <mxGeometry x="130" y="40" width="80" height="80" as="geometry" />
        </mxCell>
        <mxCell id="RnMqkkJ-I_OzIbfLoQR5-5" value="" style="edgeStyle=orthogonalEdgeStyle;rounded=0;orthogonalLoop=1;jettySize=auto;html=1;" edge="1" parent="1" source="RnMqkkJ-I_OzIbfLoQR5-2" target="RnMqkkJ-I_OzIbfLoQR5-4">
          <mxGeometry relative="1" as="geometry" />
        </mxCell>
        <mxCell id="RnMqkkJ-I_OzIbfLoQR5-2" value="Input patient_id" style="whiteSpace=wrap;html=1;" vertex="1" parent="1">
          <mxGeometry x="270" y="50" width="120" height="60" as="geometry" />
        </mxCell>
        <mxCell id="RnMqkkJ-I_OzIbfLoQR5-6" style="edgeStyle=orthogonalEdgeStyle;rounded=0;orthogonalLoop=1;jettySize=auto;html=1;entryX=1;entryY=0.5;entryDx=0;entryDy=0;" edge="1" parent="1" source="RnMqkkJ-I_OzIbfLoQR5-4" target="RnMqkkJ-I_OzIbfLoQR5-2">
          <mxGeometry relative="1" as="geometry">
            <Array as="points">
              <mxPoint x="410" y="220" />
              <mxPoint x="410" y="80" />
            </Array>
          </mxGeometry>
        </mxCell>
        <mxCell id="RnMqkkJ-I_OzIbfLoQR5-9" value="" style="edgeStyle=orthogonalEdgeStyle;rounded=0;orthogonalLoop=1;jettySize=auto;html=1;" edge="1" parent="1" source="RnMqkkJ-I_OzIbfLoQR5-4" target="RnMqkkJ-I_OzIbfLoQR5-8">
          <mxGeometry relative="1" as="geometry" />
        </mxCell>
        <mxCell id="RnMqkkJ-I_OzIbfLoQR5-4" value="Founded?" style="rhombus;whiteSpace=wrap;html=1;" vertex="1" parent="1">
          <mxGeometry x="290" y="180" width="80" height="80" as="geometry" />
        </mxCell>
        <mxCell id="RnMqkkJ-I_OzIbfLoQR5-7" value="No" style="text;html=1;align=center;verticalAlign=middle;resizable=0;points=[];autosize=1;strokeColor=none;fillColor=none;" vertex="1" parent="1">
          <mxGeometry x="410" y="140" width="40" height="30" as="geometry" />
        </mxCell>
        <mxCell id="iVgjGl6SX8KU5YZnGqm1-2" value="" style="edgeStyle=orthogonalEdgeStyle;rounded=0;orthogonalLoop=1;jettySize=auto;html=1;" edge="1" parent="1" source="RnMqkkJ-I_OzIbfLoQR5-8" target="iVgjGl6SX8KU5YZnGqm1-1">
          <mxGeometry relative="1" as="geometry" />
        </mxCell>
        <mxCell id="RnMqkkJ-I_OzIbfLoQR5-8" value="Display&lt;div&gt;(name, Room, Status)&lt;/div&gt;" style="whiteSpace=wrap;html=1;" vertex="1" parent="1">
          <mxGeometry x="270" y="330" width="120" height="60" as="geometry" />
        </mxCell>
        <mxCell id="RnMqkkJ-I_OzIbfLoQR5-10" value="Yes" style="text;html=1;align=center;verticalAlign=middle;resizable=0;points=[];autosize=1;strokeColor=none;fillColor=none;" vertex="1" parent="1">
          <mxGeometry x="330" y="270" width="40" height="30" as="geometry" />
        </mxCell>
        <mxCell id="iVgjGl6SX8KU5YZnGqm1-1" value="F" style="ellipse;whiteSpace=wrap;html=1;" vertex="1" parent="1">
          <mxGeometry x="290" y="460" width="80" height="80" as="geometry" />
        </mxCell>
      </root>
    </mxGraphModel>
  </diagram>
  <diagram id="EifU2XU3mgSAGUPBWLAw" name="Flowchart Add Actor admin">
    <mxGraphModel dx="1244" dy="782" grid="1" gridSize="10" guides="1" tooltips="1" connect="1" arrows="1" fold="1" page="1" pageScale="1" pageWidth="850" pageHeight="1100" math="0" shadow="0">
      <root>
        <mxCell id="0" />
        <mxCell id="1" parent="0" />
        <mxCell id="A16EviHsCIkHQQKxcXTt-1" value="" style="edgeStyle=orthogonalEdgeStyle;rounded=0;orthogonalLoop=1;jettySize=auto;html=1;" parent="1" source="A16EviHsCIkHQQKxcXTt-2" target="A16EviHsCIkHQQKxcXTt-4" edge="1">
          <mxGeometry relative="1" as="geometry" />
        </mxCell>
        <mxCell id="A16EviHsCIkHQQKxcXTt-2" value="A" style="ellipse;whiteSpace=wrap;html=1;aspect=fixed;" parent="1" vertex="1">
          <mxGeometry x="40" y="30" width="80" height="80" as="geometry" />
        </mxCell>
        <mxCell id="A16EviHsCIkHQQKxcXTt-3" value="" style="edgeStyle=orthogonalEdgeStyle;rounded=0;orthogonalLoop=1;jettySize=auto;html=1;" parent="1" source="A16EviHsCIkHQQKxcXTt-4" target="A16EviHsCIkHQQKxcXTt-7" edge="1">
          <mxGeometry relative="1" as="geometry" />
        </mxCell>
        <mxCell id="A16EviHsCIkHQQKxcXTt-4" value="Menu" style="whiteSpace=wrap;html=1;" parent="1" vertex="1">
          <mxGeometry x="150" y="40" width="120" height="60" as="geometry" />
        </mxCell>
        <mxCell id="A16EviHsCIkHQQKxcXTt-15" value="" style="edgeStyle=orthogonalEdgeStyle;rounded=0;orthogonalLoop=1;jettySize=auto;html=1;" parent="1" source="A16EviHsCIkHQQKxcXTt-7" target="A16EviHsCIkHQQKxcXTt-14" edge="1">
          <mxGeometry relative="1" as="geometry" />
        </mxCell>
        <mxCell id="A16EviHsCIkHQQKxcXTt-20" value="" style="edgeStyle=orthogonalEdgeStyle;rounded=0;orthogonalLoop=1;jettySize=auto;html=1;" parent="1" source="A16EviHsCIkHQQKxcXTt-7" target="A16EviHsCIkHQQKxcXTt-19" edge="1">
          <mxGeometry relative="1" as="geometry" />
        </mxCell>
        <mxCell id="A16EviHsCIkHQQKxcXTt-7" value="Add patient" style="rhombus;whiteSpace=wrap;html=1;" parent="1" vertex="1">
          <mxGeometry x="170" y="140" width="80" height="80" as="geometry" />
        </mxCell>
        <mxCell id="A16EviHsCIkHQQKxcXTt-17" value="" style="edgeStyle=orthogonalEdgeStyle;rounded=0;orthogonalLoop=1;jettySize=auto;html=1;" parent="1" source="A16EviHsCIkHQQKxcXTt-14" target="A16EviHsCIkHQQKxcXTt-16" edge="1">
          <mxGeometry relative="1" as="geometry" />
        </mxCell>
        <mxCell id="A16EviHsCIkHQQKxcXTt-22" value="" style="edgeStyle=orthogonalEdgeStyle;rounded=0;orthogonalLoop=1;jettySize=auto;html=1;" parent="1" source="A16EviHsCIkHQQKxcXTt-14" target="A16EviHsCIkHQQKxcXTt-21" edge="1">
          <mxGeometry relative="1" as="geometry" />
        </mxCell>
        <mxCell id="A16EviHsCIkHQQKxcXTt-23" style="edgeStyle=orthogonalEdgeStyle;rounded=0;orthogonalLoop=1;jettySize=auto;html=1;entryX=0;entryY=0.75;entryDx=0;entryDy=0;" parent="1" source="A16EviHsCIkHQQKxcXTt-14" target="A16EviHsCIkHQQKxcXTt-4" edge="1">
          <mxGeometry relative="1" as="geometry">
            <Array as="points">
              <mxPoint x="130" y="300" />
              <mxPoint x="130" y="85" />
            </Array>
          </mxGeometry>
        </mxCell>
        <mxCell id="A16EviHsCIkHQQKxcXTt-14" value="Add Room" style="rhombus;whiteSpace=wrap;html=1;" parent="1" vertex="1">
          <mxGeometry x="170" y="260" width="80" height="80" as="geometry" />
        </mxCell>
        <mxCell id="A16EviHsCIkHQQKxcXTt-16" value="F" style="ellipse;whiteSpace=wrap;html=1;" parent="1" vertex="1">
          <mxGeometry x="170" y="390" width="80" height="80" as="geometry" />
        </mxCell>
        <mxCell id="A16EviHsCIkHQQKxcXTt-28" value="" style="edgeStyle=orthogonalEdgeStyle;rounded=0;orthogonalLoop=1;jettySize=auto;html=1;" parent="1" source="A16EviHsCIkHQQKxcXTt-19" target="A16EviHsCIkHQQKxcXTt-27" edge="1">
          <mxGeometry relative="1" as="geometry" />
        </mxCell>
        <mxCell id="A16EviHsCIkHQQKxcXTt-19" value="input&lt;div&gt;(name, disease, status)&lt;/div&gt;" style="whiteSpace=wrap;html=1;" parent="1" vertex="1">
          <mxGeometry x="305" y="150" width="120" height="60" as="geometry" />
        </mxCell>
        <mxCell id="A16EviHsCIkHQQKxcXTt-30" value="" style="edgeStyle=orthogonalEdgeStyle;rounded=0;orthogonalLoop=1;jettySize=auto;html=1;" parent="1" source="A16EviHsCIkHQQKxcXTt-21" target="A16EviHsCIkHQQKxcXTt-29" edge="1">
          <mxGeometry relative="1" as="geometry" />
        </mxCell>
        <mxCell id="A16EviHsCIkHQQKxcXTt-21" value="input(class)" style="whiteSpace=wrap;html=1;" parent="1" vertex="1">
          <mxGeometry x="305" y="270" width="120" height="60" as="geometry" />
        </mxCell>
        <mxCell id="A16EviHsCIkHQQKxcXTt-24" value="yes" style="text;html=1;align=center;verticalAlign=middle;resizable=0;points=[];autosize=1;strokeColor=none;fillColor=none;" parent="1" vertex="1">
          <mxGeometry x="250" y="150" width="40" height="30" as="geometry" />
        </mxCell>
        <mxCell id="A16EviHsCIkHQQKxcXTt-25" value="yes" style="text;html=1;align=center;verticalAlign=middle;resizable=0;points=[];autosize=1;strokeColor=none;fillColor=none;" parent="1" vertex="1">
          <mxGeometry x="250" y="270" width="40" height="30" as="geometry" />
        </mxCell>
        <mxCell id="A16EviHsCIkHQQKxcXTt-26" value="no" style="text;html=1;align=center;verticalAlign=middle;resizable=0;points=[];autosize=1;strokeColor=none;fillColor=none;" parent="1" vertex="1">
          <mxGeometry x="170" y="220" width="40" height="30" as="geometry" />
        </mxCell>
        <mxCell id="A16EviHsCIkHQQKxcXTt-31" style="edgeStyle=orthogonalEdgeStyle;rounded=0;orthogonalLoop=1;jettySize=auto;html=1;entryX=1;entryY=0.25;entryDx=0;entryDy=0;" parent="1" source="A16EviHsCIkHQQKxcXTt-27" target="A16EviHsCIkHQQKxcXTt-4" edge="1">
          <mxGeometry relative="1" as="geometry">
            <Array as="points">
              <mxPoint x="790" y="180" />
              <mxPoint x="790" y="50" />
              <mxPoint x="270" y="50" />
            </Array>
          </mxGeometry>
        </mxCell>
        <mxCell id="A16EviHsCIkHQQKxcXTt-27" value="dict patient updated" style="whiteSpace=wrap;html=1;" parent="1" vertex="1">
          <mxGeometry x="505" y="150" width="120" height="60" as="geometry" />
        </mxCell>
        <mxCell id="A16EviHsCIkHQQKxcXTt-32" style="edgeStyle=orthogonalEdgeStyle;rounded=0;orthogonalLoop=1;jettySize=auto;html=1;entryX=1;entryY=0.5;entryDx=0;entryDy=0;" parent="1" source="A16EviHsCIkHQQKxcXTt-29" target="A16EviHsCIkHQQKxcXTt-4" edge="1">
          <mxGeometry relative="1" as="geometry">
            <Array as="points">
              <mxPoint x="600" y="70" />
            </Array>
          </mxGeometry>
        </mxCell>
        <mxCell id="A16EviHsCIkHQQKxcXTt-29" value="dict rooms updated" style="whiteSpace=wrap;html=1;" parent="1" vertex="1">
          <mxGeometry x="505" y="270" width="120" height="60" as="geometry" />
        </mxCell>
        <mxCell id="bMd2ly1zPi4ABHxUSrpK-1" value="no" style="text;html=1;align=center;verticalAlign=middle;resizable=0;points=[];autosize=1;strokeColor=none;fillColor=none;" parent="1" vertex="1">
          <mxGeometry x="130" y="270" width="40" height="30" as="geometry" />
        </mxCell>
      </root>
    </mxGraphModel>
  </diagram>
  <diagram id="9zEsg-eA38KFshIPtc82" name="Flowchart read actor admin">
    <mxGraphModel dx="1244" dy="782" grid="1" gridSize="10" guides="1" tooltips="1" connect="1" arrows="1" fold="1" page="1" pageScale="1" pageWidth="850" pageHeight="1100" math="0" shadow="0">
      <root>
        <mxCell id="0" />
        <mxCell id="1" parent="0" />
        <mxCell id="Vgfe2141Xp2tug-QlEBC-1" value="" style="edgeStyle=orthogonalEdgeStyle;rounded=0;orthogonalLoop=1;jettySize=auto;html=1;" parent="1" source="Vgfe2141Xp2tug-QlEBC-2" target="Vgfe2141Xp2tug-QlEBC-4" edge="1">
          <mxGeometry relative="1" as="geometry" />
        </mxCell>
        <mxCell id="Vgfe2141Xp2tug-QlEBC-2" value="B" style="ellipse;whiteSpace=wrap;html=1;aspect=fixed;" parent="1" vertex="1">
          <mxGeometry x="40" y="30" width="80" height="80" as="geometry" />
        </mxCell>
        <mxCell id="Vgfe2141Xp2tug-QlEBC-3" value="" style="edgeStyle=orthogonalEdgeStyle;rounded=0;orthogonalLoop=1;jettySize=auto;html=1;" parent="1" source="Vgfe2141Xp2tug-QlEBC-4" target="Vgfe2141Xp2tug-QlEBC-7" edge="1">
          <mxGeometry relative="1" as="geometry" />
        </mxCell>
        <mxCell id="Vgfe2141Xp2tug-QlEBC-4" value="Menu" style="whiteSpace=wrap;html=1;" parent="1" vertex="1">
          <mxGeometry x="150" y="40" width="120" height="60" as="geometry" />
        </mxCell>
        <mxCell id="Vgfe2141Xp2tug-QlEBC-5" value="" style="edgeStyle=orthogonalEdgeStyle;rounded=0;orthogonalLoop=1;jettySize=auto;html=1;" parent="1" source="Vgfe2141Xp2tug-QlEBC-7" target="Vgfe2141Xp2tug-QlEBC-11" edge="1">
          <mxGeometry relative="1" as="geometry" />
        </mxCell>
        <mxCell id="Vgfe2141Xp2tug-QlEBC-6" value="" style="edgeStyle=orthogonalEdgeStyle;rounded=0;orthogonalLoop=1;jettySize=auto;html=1;" parent="1" source="Vgfe2141Xp2tug-QlEBC-7" target="Vgfe2141Xp2tug-QlEBC-14" edge="1">
          <mxGeometry relative="1" as="geometry" />
        </mxCell>
        <mxCell id="Vgfe2141Xp2tug-QlEBC-7" value="read patient" style="rhombus;whiteSpace=wrap;html=1;" parent="1" vertex="1">
          <mxGeometry x="170" y="140" width="80" height="80" as="geometry" />
        </mxCell>
        <mxCell id="Vgfe2141Xp2tug-QlEBC-9" value="" style="edgeStyle=orthogonalEdgeStyle;rounded=0;orthogonalLoop=1;jettySize=auto;html=1;" parent="1" source="Vgfe2141Xp2tug-QlEBC-11" target="Vgfe2141Xp2tug-QlEBC-16" edge="1">
          <mxGeometry relative="1" as="geometry" />
        </mxCell>
        <mxCell id="eYAmmJWwfbhA4X5Bt3eZ-2" value="" style="edgeStyle=orthogonalEdgeStyle;rounded=0;orthogonalLoop=1;jettySize=auto;html=1;" parent="1" source="Vgfe2141Xp2tug-QlEBC-11" target="eYAmmJWwfbhA4X5Bt3eZ-1" edge="1">
          <mxGeometry relative="1" as="geometry" />
        </mxCell>
        <mxCell id="Vgfe2141Xp2tug-QlEBC-11" value="read room" style="rhombus;whiteSpace=wrap;html=1;" parent="1" vertex="1">
          <mxGeometry x="170" y="260" width="80" height="80" as="geometry" />
        </mxCell>
        <mxCell id="sDPCgbHzBv4IAEbjmfmA-4" style="edgeStyle=orthogonalEdgeStyle;rounded=0;orthogonalLoop=1;jettySize=auto;html=1;entryX=1;entryY=0.5;entryDx=0;entryDy=0;" parent="1" source="Vgfe2141Xp2tug-QlEBC-14" target="Vgfe2141Xp2tug-QlEBC-4" edge="1">
          <mxGeometry relative="1" as="geometry">
            <Array as="points">
              <mxPoint x="510" y="180" />
              <mxPoint x="510" y="100" />
              <mxPoint x="290" y="100" />
              <mxPoint x="290" y="70" />
            </Array>
          </mxGeometry>
        </mxCell>
        <mxCell id="Vgfe2141Xp2tug-QlEBC-14" value="Show all patient data" style="whiteSpace=wrap;html=1;" parent="1" vertex="1">
          <mxGeometry x="305" y="150" width="120" height="60" as="geometry" />
        </mxCell>
        <mxCell id="Vgfe2141Xp2tug-QlEBC-15" value="" style="edgeStyle=orthogonalEdgeStyle;rounded=0;orthogonalLoop=1;jettySize=auto;html=1;entryX=1;entryY=0.5;entryDx=0;entryDy=0;" parent="1" source="Vgfe2141Xp2tug-QlEBC-16" target="Vgfe2141Xp2tug-QlEBC-4" edge="1">
          <mxGeometry relative="1" as="geometry">
            <mxPoint x="505" y="300" as="targetPoint" />
            <Array as="points">
              <mxPoint x="540" y="300" />
              <mxPoint x="540" y="70" />
            </Array>
          </mxGeometry>
        </mxCell>
        <mxCell id="Vgfe2141Xp2tug-QlEBC-16" value="Show all room data" style="whiteSpace=wrap;html=1;" parent="1" vertex="1">
          <mxGeometry x="305" y="270" width="120" height="60" as="geometry" />
        </mxCell>
        <mxCell id="Vgfe2141Xp2tug-QlEBC-17" value="yes" style="text;html=1;align=center;verticalAlign=middle;resizable=0;points=[];autosize=1;strokeColor=none;fillColor=none;" parent="1" vertex="1">
          <mxGeometry x="250" y="150" width="40" height="30" as="geometry" />
        </mxCell>
        <mxCell id="Vgfe2141Xp2tug-QlEBC-18" value="yes" style="text;html=1;align=center;verticalAlign=middle;resizable=0;points=[];autosize=1;strokeColor=none;fillColor=none;" parent="1" vertex="1">
          <mxGeometry x="250" y="270" width="40" height="30" as="geometry" />
        </mxCell>
        <mxCell id="Vgfe2141Xp2tug-QlEBC-19" value="No" style="text;html=1;align=center;verticalAlign=middle;resizable=0;points=[];autosize=1;strokeColor=none;fillColor=none;" parent="1" vertex="1">
          <mxGeometry x="170" y="220" width="40" height="30" as="geometry" />
        </mxCell>
        <mxCell id="eYAmmJWwfbhA4X5Bt3eZ-4" value="" style="edgeStyle=orthogonalEdgeStyle;rounded=0;orthogonalLoop=1;jettySize=auto;html=1;" parent="1" source="eYAmmJWwfbhA4X5Bt3eZ-1" target="eYAmmJWwfbhA4X5Bt3eZ-3" edge="1">
          <mxGeometry relative="1" as="geometry" />
        </mxCell>
        <mxCell id="sDPCgbHzBv4IAEbjmfmA-6" value="" style="edgeStyle=orthogonalEdgeStyle;rounded=0;orthogonalLoop=1;jettySize=auto;html=1;" parent="1" source="eYAmmJWwfbhA4X5Bt3eZ-1" target="sDPCgbHzBv4IAEbjmfmA-5" edge="1">
          <mxGeometry relative="1" as="geometry" />
        </mxCell>
        <mxCell id="eYAmmJWwfbhA4X5Bt3eZ-1" value="find patient" style="rhombus;whiteSpace=wrap;html=1;" parent="1" vertex="1">
          <mxGeometry x="170" y="380" width="80" height="80" as="geometry" />
        </mxCell>
        <mxCell id="sDPCgbHzBv4IAEbjmfmA-11" value="" style="edgeStyle=orthogonalEdgeStyle;rounded=0;orthogonalLoop=1;jettySize=auto;html=1;" parent="1" source="eYAmmJWwfbhA4X5Bt3eZ-3" target="sDPCgbHzBv4IAEbjmfmA-10" edge="1">
          <mxGeometry relative="1" as="geometry" />
        </mxCell>
        <mxCell id="eYAmmJWwfbhA4X5Bt3eZ-3" value="sorted patient&lt;div&gt;data&lt;/div&gt;" style="rhombus;whiteSpace=wrap;html=1;" parent="1" vertex="1">
          <mxGeometry x="170" y="500" width="80" height="80" as="geometry" />
        </mxCell>
        <mxCell id="sDPCgbHzBv4IAEbjmfmA-1" value="No" style="text;html=1;align=center;verticalAlign=middle;resizable=0;points=[];autosize=1;strokeColor=none;fillColor=none;" parent="1" vertex="1">
          <mxGeometry x="170" y="340" width="40" height="30" as="geometry" />
        </mxCell>
        <mxCell id="sDPCgbHzBv4IAEbjmfmA-2" value="No" style="text;html=1;align=center;verticalAlign=middle;resizable=0;points=[];autosize=1;strokeColor=none;fillColor=none;" parent="1" vertex="1">
          <mxGeometry x="170" y="460" width="40" height="30" as="geometry" />
        </mxCell>
        <mxCell id="sDPCgbHzBv4IAEbjmfmA-8" value="" style="edgeStyle=orthogonalEdgeStyle;rounded=0;orthogonalLoop=1;jettySize=auto;html=1;" parent="1" source="sDPCgbHzBv4IAEbjmfmA-5" target="sDPCgbHzBv4IAEbjmfmA-7" edge="1">
          <mxGeometry relative="1" as="geometry" />
        </mxCell>
        <mxCell id="sDPCgbHzBv4IAEbjmfmA-5" value="input name:" style="whiteSpace=wrap;html=1;" parent="1" vertex="1">
          <mxGeometry x="300" y="390" width="120" height="60" as="geometry" />
        </mxCell>
        <mxCell id="sDPCgbHzBv4IAEbjmfmA-9" style="edgeStyle=orthogonalEdgeStyle;rounded=0;orthogonalLoop=1;jettySize=auto;html=1;entryX=1;entryY=0.25;entryDx=0;entryDy=0;" parent="1" source="sDPCgbHzBv4IAEbjmfmA-7" target="Vgfe2141Xp2tug-QlEBC-4" edge="1">
          <mxGeometry relative="1" as="geometry">
            <Array as="points">
              <mxPoint x="650" y="420" />
              <mxPoint x="650" y="55" />
            </Array>
          </mxGeometry>
        </mxCell>
        <mxCell id="sDPCgbHzBv4IAEbjmfmA-7" value="Show name if name in patient" style="whiteSpace=wrap;html=1;" parent="1" vertex="1">
          <mxGeometry x="500" y="390" width="120" height="60" as="geometry" />
        </mxCell>
        <mxCell id="sDPCgbHzBv4IAEbjmfmA-13" value="" style="edgeStyle=orthogonalEdgeStyle;rounded=0;orthogonalLoop=1;jettySize=auto;html=1;" parent="1" source="sDPCgbHzBv4IAEbjmfmA-10" target="sDPCgbHzBv4IAEbjmfmA-12" edge="1">
          <mxGeometry relative="1" as="geometry" />
        </mxCell>
        <mxCell id="sDPCgbHzBv4IAEbjmfmA-19" value="" style="edgeStyle=orthogonalEdgeStyle;rounded=0;orthogonalLoop=1;jettySize=auto;html=1;" parent="1" source="sDPCgbHzBv4IAEbjmfmA-10" target="sDPCgbHzBv4IAEbjmfmA-18" edge="1">
          <mxGeometry relative="1" as="geometry" />
        </mxCell>
        <mxCell id="sDPCgbHzBv4IAEbjmfmA-10" value="sorted name" style="rhombus;whiteSpace=wrap;html=1;" parent="1" vertex="1">
          <mxGeometry x="330" y="500" width="80" height="80" as="geometry" />
        </mxCell>
        <mxCell id="sDPCgbHzBv4IAEbjmfmA-15" value="" style="edgeStyle=orthogonalEdgeStyle;rounded=0;orthogonalLoop=1;jettySize=auto;html=1;" parent="1" source="sDPCgbHzBv4IAEbjmfmA-12" target="sDPCgbHzBv4IAEbjmfmA-14" edge="1">
          <mxGeometry relative="1" as="geometry" />
        </mxCell>
        <mxCell id="sDPCgbHzBv4IAEbjmfmA-23" style="edgeStyle=orthogonalEdgeStyle;rounded=0;orthogonalLoop=1;jettySize=auto;html=1;entryX=0;entryY=0.5;entryDx=0;entryDy=0;" parent="1" source="sDPCgbHzBv4IAEbjmfmA-12" target="sDPCgbHzBv4IAEbjmfmA-20" edge="1">
          <mxGeometry relative="1" as="geometry" />
        </mxCell>
        <mxCell id="sDPCgbHzBv4IAEbjmfmA-12" value="sorted disease" style="rhombus;whiteSpace=wrap;html=1;" parent="1" vertex="1">
          <mxGeometry x="330" y="620" width="80" height="80" as="geometry" />
        </mxCell>
        <mxCell id="sDPCgbHzBv4IAEbjmfmA-17" value="" style="edgeStyle=orthogonalEdgeStyle;rounded=0;orthogonalLoop=1;jettySize=auto;html=1;" parent="1" source="sDPCgbHzBv4IAEbjmfmA-14" target="sDPCgbHzBv4IAEbjmfmA-16" edge="1">
          <mxGeometry relative="1" as="geometry" />
        </mxCell>
        <mxCell id="sDPCgbHzBv4IAEbjmfmA-24" style="edgeStyle=orthogonalEdgeStyle;rounded=0;orthogonalLoop=1;jettySize=auto;html=1;entryX=0;entryY=0.5;entryDx=0;entryDy=0;" parent="1" source="sDPCgbHzBv4IAEbjmfmA-14" target="sDPCgbHzBv4IAEbjmfmA-21" edge="1">
          <mxGeometry relative="1" as="geometry" />
        </mxCell>
        <mxCell id="sDPCgbHzBv4IAEbjmfmA-14" value="sorted room_id" style="rhombus;whiteSpace=wrap;html=1;" parent="1" vertex="1">
          <mxGeometry x="330" y="730" width="80" height="80" as="geometry" />
        </mxCell>
        <mxCell id="sDPCgbHzBv4IAEbjmfmA-25" style="edgeStyle=orthogonalEdgeStyle;rounded=0;orthogonalLoop=1;jettySize=auto;html=1;entryX=0;entryY=0.5;entryDx=0;entryDy=0;" parent="1" source="sDPCgbHzBv4IAEbjmfmA-16" target="sDPCgbHzBv4IAEbjmfmA-22" edge="1">
          <mxGeometry relative="1" as="geometry" />
        </mxCell>
        <mxCell id="sDPCgbHzBv4IAEbjmfmA-16" value="sorted status" style="rhombus;whiteSpace=wrap;html=1;" parent="1" vertex="1">
          <mxGeometry x="330" y="850" width="80" height="80" as="geometry" />
        </mxCell>
        <mxCell id="sDPCgbHzBv4IAEbjmfmA-26" style="edgeStyle=orthogonalEdgeStyle;rounded=0;orthogonalLoop=1;jettySize=auto;html=1;" parent="1" source="sDPCgbHzBv4IAEbjmfmA-18" edge="1">
          <mxGeometry relative="1" as="geometry">
            <mxPoint x="650" y="420" as="targetPoint" />
          </mxGeometry>
        </mxCell>
        <mxCell id="sDPCgbHzBv4IAEbjmfmA-18" value="show patient with sorted by name" style="whiteSpace=wrap;html=1;" parent="1" vertex="1">
          <mxGeometry x="470" y="510" width="120" height="60" as="geometry" />
        </mxCell>
        <mxCell id="sDPCgbHzBv4IAEbjmfmA-27" style="edgeStyle=orthogonalEdgeStyle;rounded=0;orthogonalLoop=1;jettySize=auto;html=1;" parent="1" source="sDPCgbHzBv4IAEbjmfmA-20" edge="1">
          <mxGeometry relative="1" as="geometry">
            <mxPoint x="650" y="540" as="targetPoint" />
          </mxGeometry>
        </mxCell>
        <mxCell id="sDPCgbHzBv4IAEbjmfmA-20" value="show patient with sorted by disease" style="whiteSpace=wrap;html=1;" parent="1" vertex="1">
          <mxGeometry x="470" y="630" width="120" height="60" as="geometry" />
        </mxCell>
        <mxCell id="sDPCgbHzBv4IAEbjmfmA-28" style="edgeStyle=orthogonalEdgeStyle;rounded=0;orthogonalLoop=1;jettySize=auto;html=1;" parent="1" source="sDPCgbHzBv4IAEbjmfmA-21" edge="1">
          <mxGeometry relative="1" as="geometry">
            <mxPoint x="650" y="660" as="targetPoint" />
          </mxGeometry>
        </mxCell>
        <mxCell id="sDPCgbHzBv4IAEbjmfmA-21" value="show patient with sorted by room_id" style="whiteSpace=wrap;html=1;" parent="1" vertex="1">
          <mxGeometry x="470" y="740" width="120" height="60" as="geometry" />
        </mxCell>
        <mxCell id="sDPCgbHzBv4IAEbjmfmA-30" style="edgeStyle=orthogonalEdgeStyle;rounded=0;orthogonalLoop=1;jettySize=auto;html=1;" parent="1" source="sDPCgbHzBv4IAEbjmfmA-22" edge="1">
          <mxGeometry relative="1" as="geometry">
            <mxPoint x="650" y="770" as="targetPoint" />
          </mxGeometry>
        </mxCell>
        <mxCell id="sDPCgbHzBv4IAEbjmfmA-22" value="show patient with sorted by status" style="whiteSpace=wrap;html=1;" parent="1" vertex="1">
          <mxGeometry x="470" y="860" width="120" height="60" as="geometry" />
        </mxCell>
        <mxCell id="fy52YmHFIuOlBDpPieaT-1" value="yes" style="text;html=1;align=center;verticalAlign=middle;resizable=0;points=[];autosize=1;strokeColor=none;fillColor=none;" parent="1" vertex="1">
          <mxGeometry x="250" y="390" width="40" height="30" as="geometry" />
        </mxCell>
        <mxCell id="fy52YmHFIuOlBDpPieaT-2" value="yes" style="text;html=1;align=center;verticalAlign=middle;resizable=0;points=[];autosize=1;strokeColor=none;fillColor=none;" parent="1" vertex="1">
          <mxGeometry x="250" y="510" width="40" height="30" as="geometry" />
        </mxCell>
      </root>
    </mxGraphModel>
  </diagram>
  <diagram id="ZKKIMQhaWt0Jju697Zim" name="Flowchart Update Actor Admin">
    <mxGraphModel dx="1244" dy="782" grid="1" gridSize="10" guides="1" tooltips="1" connect="1" arrows="1" fold="1" page="1" pageScale="1" pageWidth="850" pageHeight="1100" math="0" shadow="0">
      <root>
        <mxCell id="0" />
        <mxCell id="1" parent="0" />
        <mxCell id="w7Bj7k-1pqhqbpeDghRX-1" value="" style="edgeStyle=orthogonalEdgeStyle;rounded=0;orthogonalLoop=1;jettySize=auto;html=1;" parent="1" source="w7Bj7k-1pqhqbpeDghRX-2" target="w7Bj7k-1pqhqbpeDghRX-4" edge="1">
          <mxGeometry relative="1" as="geometry" />
        </mxCell>
        <mxCell id="w7Bj7k-1pqhqbpeDghRX-2" value="C" style="ellipse;whiteSpace=wrap;html=1;aspect=fixed;" parent="1" vertex="1">
          <mxGeometry x="40" y="20" width="80" height="80" as="geometry" />
        </mxCell>
        <mxCell id="w7Bj7k-1pqhqbpeDghRX-3" value="" style="edgeStyle=orthogonalEdgeStyle;rounded=0;orthogonalLoop=1;jettySize=auto;html=1;" parent="1" source="w7Bj7k-1pqhqbpeDghRX-4" target="w7Bj7k-1pqhqbpeDghRX-7" edge="1">
          <mxGeometry relative="1" as="geometry" />
        </mxCell>
        <mxCell id="w7Bj7k-1pqhqbpeDghRX-4" value="Menu" style="whiteSpace=wrap;html=1;" parent="1" vertex="1">
          <mxGeometry x="150" y="40" width="120" height="60" as="geometry" />
        </mxCell>
        <mxCell id="w7Bj7k-1pqhqbpeDghRX-5" value="" style="edgeStyle=orthogonalEdgeStyle;rounded=0;orthogonalLoop=1;jettySize=auto;html=1;" parent="1" source="w7Bj7k-1pqhqbpeDghRX-7" target="w7Bj7k-1pqhqbpeDghRX-10" edge="1">
          <mxGeometry relative="1" as="geometry" />
        </mxCell>
        <mxCell id="AuM9Kr6lnWnWFqrvfArM-3" value="" style="edgeStyle=orthogonalEdgeStyle;rounded=0;orthogonalLoop=1;jettySize=auto;html=1;" parent="1" source="AuM9Kr6lnWnWFqrvfArM-26" target="AuM9Kr6lnWnWFqrvfArM-2" edge="1">
          <mxGeometry relative="1" as="geometry" />
        </mxCell>
        <mxCell id="w7Bj7k-1pqhqbpeDghRX-7" value="update Name" style="rhombus;whiteSpace=wrap;html=1;" parent="1" vertex="1">
          <mxGeometry x="170" y="140" width="80" height="80" as="geometry" />
        </mxCell>
        <mxCell id="w7Bj7k-1pqhqbpeDghRX-9" value="" style="edgeStyle=orthogonalEdgeStyle;rounded=0;orthogonalLoop=1;jettySize=auto;html=1;" parent="1" source="w7Bj7k-1pqhqbpeDghRX-10" target="w7Bj7k-1pqhqbpeDghRX-20" edge="1">
          <mxGeometry relative="1" as="geometry" />
        </mxCell>
        <mxCell id="AuM9Kr6lnWnWFqrvfArM-23" style="edgeStyle=orthogonalEdgeStyle;rounded=0;orthogonalLoop=1;jettySize=auto;html=1;entryX=0;entryY=0.5;entryDx=0;entryDy=0;" parent="1" source="AuM9Kr6lnWnWFqrvfArM-28" target="AuM9Kr6lnWnWFqrvfArM-19" edge="1">
          <mxGeometry relative="1" as="geometry" />
        </mxCell>
        <mxCell id="w7Bj7k-1pqhqbpeDghRX-10" value="update Room" style="rhombus;whiteSpace=wrap;html=1;" parent="1" vertex="1">
          <mxGeometry x="170" y="260" width="80" height="80" as="geometry" />
        </mxCell>
        <mxCell id="w7Bj7k-1pqhqbpeDghRX-15" value="yes" style="text;html=1;align=center;verticalAlign=middle;resizable=0;points=[];autosize=1;strokeColor=none;fillColor=none;" parent="1" vertex="1">
          <mxGeometry x="250" y="140" width="40" height="30" as="geometry" />
        </mxCell>
        <mxCell id="w7Bj7k-1pqhqbpeDghRX-16" value="yes" style="text;html=1;align=center;verticalAlign=middle;resizable=0;points=[];autosize=1;strokeColor=none;fillColor=none;" parent="1" vertex="1">
          <mxGeometry x="250" y="265" width="40" height="30" as="geometry" />
        </mxCell>
        <mxCell id="w7Bj7k-1pqhqbpeDghRX-17" value="No" style="text;html=1;align=center;verticalAlign=middle;resizable=0;points=[];autosize=1;strokeColor=none;fillColor=none;" parent="1" vertex="1">
          <mxGeometry x="170" y="220" width="40" height="30" as="geometry" />
        </mxCell>
        <mxCell id="w7Bj7k-1pqhqbpeDghRX-18" value="" style="edgeStyle=orthogonalEdgeStyle;rounded=0;orthogonalLoop=1;jettySize=auto;html=1;" parent="1" source="w7Bj7k-1pqhqbpeDghRX-20" target="w7Bj7k-1pqhqbpeDghRX-22" edge="1">
          <mxGeometry relative="1" as="geometry" />
        </mxCell>
        <mxCell id="AuM9Kr6lnWnWFqrvfArM-24" style="edgeStyle=orthogonalEdgeStyle;rounded=0;orthogonalLoop=1;jettySize=auto;html=1;entryX=0;entryY=0.5;entryDx=0;entryDy=0;" parent="1" source="AuM9Kr6lnWnWFqrvfArM-30" target="AuM9Kr6lnWnWFqrvfArM-20" edge="1">
          <mxGeometry relative="1" as="geometry" />
        </mxCell>
        <mxCell id="w7Bj7k-1pqhqbpeDghRX-20" value="update Status" style="rhombus;whiteSpace=wrap;html=1;" parent="1" vertex="1">
          <mxGeometry x="170" y="380" width="80" height="80" as="geometry" />
        </mxCell>
        <mxCell id="fd7IcOOn_OMO4e7Mk7Ns-2" value="" style="edgeStyle=orthogonalEdgeStyle;rounded=0;orthogonalLoop=1;jettySize=auto;html=1;" parent="1" source="w7Bj7k-1pqhqbpeDghRX-22" target="fd7IcOOn_OMO4e7Mk7Ns-1" edge="1">
          <mxGeometry relative="1" as="geometry" />
        </mxCell>
        <mxCell id="AuM9Kr6lnWnWFqrvfArM-25" style="edgeStyle=orthogonalEdgeStyle;rounded=0;orthogonalLoop=1;jettySize=auto;html=1;entryX=0;entryY=0.5;entryDx=0;entryDy=0;" parent="1" source="AuM9Kr6lnWnWFqrvfArM-32" target="AuM9Kr6lnWnWFqrvfArM-21" edge="1">
          <mxGeometry relative="1" as="geometry" />
        </mxCell>
        <mxCell id="w7Bj7k-1pqhqbpeDghRX-22" value="update Disease" style="rhombus;whiteSpace=wrap;html=1;" parent="1" vertex="1">
          <mxGeometry x="170" y="500" width="80" height="80" as="geometry" />
        </mxCell>
        <mxCell id="w7Bj7k-1pqhqbpeDghRX-23" value="No" style="text;html=1;align=center;verticalAlign=middle;resizable=0;points=[];autosize=1;strokeColor=none;fillColor=none;" parent="1" vertex="1">
          <mxGeometry x="170" y="340" width="40" height="30" as="geometry" />
        </mxCell>
        <mxCell id="w7Bj7k-1pqhqbpeDghRX-24" value="No" style="text;html=1;align=center;verticalAlign=middle;resizable=0;points=[];autosize=1;strokeColor=none;fillColor=none;" parent="1" vertex="1">
          <mxGeometry x="170" y="460" width="40" height="30" as="geometry" />
        </mxCell>
        <mxCell id="AuM9Kr6lnWnWFqrvfArM-37" style="edgeStyle=orthogonalEdgeStyle;rounded=0;orthogonalLoop=1;jettySize=auto;html=1;entryX=0;entryY=0.5;entryDx=0;entryDy=0;" parent="1" source="fd7IcOOn_OMO4e7Mk7Ns-1" target="AuM9Kr6lnWnWFqrvfArM-36" edge="1">
          <mxGeometry relative="1" as="geometry" />
        </mxCell>
        <mxCell id="ZYjvEFmRGHpuMJ4ubxgd-2" style="edgeStyle=orthogonalEdgeStyle;rounded=0;orthogonalLoop=1;jettySize=auto;html=1;" parent="1" source="fd7IcOOn_OMO4e7Mk7Ns-1" target="ZYjvEFmRGHpuMJ4ubxgd-1" edge="1">
          <mxGeometry relative="1" as="geometry" />
        </mxCell>
        <mxCell id="fd7IcOOn_OMO4e7Mk7Ns-1" value="update Class" style="rhombus;whiteSpace=wrap;html=1;" parent="1" vertex="1">
          <mxGeometry x="170" y="620" width="80" height="80" as="geometry" />
        </mxCell>
        <mxCell id="AuM9Kr6lnWnWFqrvfArM-5" value="" style="edgeStyle=orthogonalEdgeStyle;rounded=0;orthogonalLoop=1;jettySize=auto;html=1;" parent="1" source="AuM9Kr6lnWnWFqrvfArM-2" target="AuM9Kr6lnWnWFqrvfArM-4" edge="1">
          <mxGeometry relative="1" as="geometry" />
        </mxCell>
        <mxCell id="AuM9Kr6lnWnWFqrvfArM-2" value="Input index" style="whiteSpace=wrap;html=1;" parent="1" vertex="1">
          <mxGeometry x="330" y="150" width="80" height="60" as="geometry" />
        </mxCell>
        <mxCell id="AuM9Kr6lnWnWFqrvfArM-6" style="edgeStyle=orthogonalEdgeStyle;rounded=0;orthogonalLoop=1;jettySize=auto;html=1;entryX=1;entryY=0.5;entryDx=0;entryDy=0;" parent="1" source="AuM9Kr6lnWnWFqrvfArM-4" target="w7Bj7k-1pqhqbpeDghRX-4" edge="1">
          <mxGeometry relative="1" as="geometry">
            <Array as="points">
              <mxPoint x="460" y="70" />
            </Array>
          </mxGeometry>
        </mxCell>
        <mxCell id="AuM9Kr6lnWnWFqrvfArM-8" value="" style="edgeStyle=orthogonalEdgeStyle;rounded=0;orthogonalLoop=1;jettySize=auto;html=1;" parent="1" source="AuM9Kr6lnWnWFqrvfArM-4" target="AuM9Kr6lnWnWFqrvfArM-7" edge="1">
          <mxGeometry relative="1" as="geometry" />
        </mxCell>
        <mxCell id="AuM9Kr6lnWnWFqrvfArM-4" value="any?" style="rhombus;whiteSpace=wrap;html=1;" parent="1" vertex="1">
          <mxGeometry x="420" y="140" width="80" height="80" as="geometry" />
        </mxCell>
        <mxCell id="AuM9Kr6lnWnWFqrvfArM-10" value="" style="edgeStyle=orthogonalEdgeStyle;rounded=0;orthogonalLoop=1;jettySize=auto;html=1;" parent="1" source="AuM9Kr6lnWnWFqrvfArM-7" target="AuM9Kr6lnWnWFqrvfArM-9" edge="1">
          <mxGeometry relative="1" as="geometry" />
        </mxCell>
        <mxCell id="AuM9Kr6lnWnWFqrvfArM-7" value="New_name variabel" style="whiteSpace=wrap;html=1;" parent="1" vertex="1">
          <mxGeometry x="540" y="150" width="120" height="60" as="geometry" />
        </mxCell>
        <mxCell id="AuM9Kr6lnWnWFqrvfArM-11" style="edgeStyle=orthogonalEdgeStyle;rounded=0;orthogonalLoop=1;jettySize=auto;html=1;" parent="1" source="AuM9Kr6lnWnWFqrvfArM-17" edge="1">
          <mxGeometry relative="1" as="geometry">
            <mxPoint x="460" y="70" as="targetPoint" />
            <Array as="points" />
          </mxGeometry>
        </mxCell>
        <mxCell id="AuM9Kr6lnWnWFqrvfArM-13" value="" style="edgeStyle=orthogonalEdgeStyle;rounded=0;orthogonalLoop=1;jettySize=auto;html=1;" parent="1" source="AuM9Kr6lnWnWFqrvfArM-9" target="AuM9Kr6lnWnWFqrvfArM-12" edge="1">
          <mxGeometry relative="1" as="geometry" />
        </mxCell>
        <mxCell id="AuM9Kr6lnWnWFqrvfArM-9" value="any in rooms" style="rhombus;whiteSpace=wrap;html=1;" parent="1" vertex="1">
          <mxGeometry x="700" y="140" width="80" height="80" as="geometry" />
        </mxCell>
        <mxCell id="AuM9Kr6lnWnWFqrvfArM-15" value="" style="edgeStyle=orthogonalEdgeStyle;rounded=0;orthogonalLoop=1;jettySize=auto;html=1;" parent="1" source="AuM9Kr6lnWnWFqrvfArM-12" target="AuM9Kr6lnWnWFqrvfArM-14" edge="1">
          <mxGeometry relative="1" as="geometry" />
        </mxCell>
        <mxCell id="AuM9Kr6lnWnWFqrvfArM-12" value="update name in rooms" style="whiteSpace=wrap;html=1;" parent="1" vertex="1">
          <mxGeometry x="830" y="150" width="120" height="60" as="geometry" />
        </mxCell>
        <mxCell id="AuM9Kr6lnWnWFqrvfArM-16" style="edgeStyle=orthogonalEdgeStyle;rounded=0;orthogonalLoop=1;jettySize=auto;html=1;" parent="1" source="AuM9Kr6lnWnWFqrvfArM-14" edge="1">
          <mxGeometry relative="1" as="geometry">
            <mxPoint x="740" y="70" as="targetPoint" />
            <Array as="points">
              <mxPoint x="1170" y="180" />
              <mxPoint x="1170" y="70" />
            </Array>
          </mxGeometry>
        </mxCell>
        <mxCell id="AuM9Kr6lnWnWFqrvfArM-14" value="update name in patient" style="whiteSpace=wrap;html=1;" parent="1" vertex="1">
          <mxGeometry x="1000" y="150" width="120" height="60" as="geometry" />
        </mxCell>
        <mxCell id="AuM9Kr6lnWnWFqrvfArM-18" value="" style="edgeStyle=orthogonalEdgeStyle;rounded=0;orthogonalLoop=1;jettySize=auto;html=1;" parent="1" source="AuM9Kr6lnWnWFqrvfArM-9" target="AuM9Kr6lnWnWFqrvfArM-17" edge="1">
          <mxGeometry relative="1" as="geometry">
            <mxPoint x="460" y="70" as="targetPoint" />
            <mxPoint x="740" y="140" as="sourcePoint" />
            <Array as="points">
              <mxPoint x="740" y="70" />
            </Array>
          </mxGeometry>
        </mxCell>
        <mxCell id="AuM9Kr6lnWnWFqrvfArM-17" value="update name in patient" style="whiteSpace=wrap;html=1;" parent="1" vertex="1">
          <mxGeometry x="600" y="40" width="120" height="60" as="geometry" />
        </mxCell>
        <mxCell id="AuM9Kr6lnWnWFqrvfArM-40" value="" style="edgeStyle=orthogonalEdgeStyle;rounded=0;orthogonalLoop=1;jettySize=auto;html=1;" parent="1" source="_s0bzNTLVipCQZFh4Dhi-1" target="AuM9Kr6lnWnWFqrvfArM-39" edge="1">
          <mxGeometry relative="1" as="geometry" />
        </mxCell>
        <mxCell id="AuM9Kr6lnWnWFqrvfArM-19" value="Input index" style="whiteSpace=wrap;html=1;" parent="1" vertex="1">
          <mxGeometry x="370" y="270" width="80" height="60" as="geometry" />
        </mxCell>
        <mxCell id="AuM9Kr6lnWnWFqrvfArM-50" value="" style="edgeStyle=orthogonalEdgeStyle;rounded=0;orthogonalLoop=1;jettySize=auto;html=1;" parent="1" source="_s0bzNTLVipCQZFh4Dhi-3" target="AuM9Kr6lnWnWFqrvfArM-49" edge="1">
          <mxGeometry relative="1" as="geometry" />
        </mxCell>
        <mxCell id="AuM9Kr6lnWnWFqrvfArM-20" value="Input index" style="whiteSpace=wrap;html=1;" parent="1" vertex="1">
          <mxGeometry x="370" y="390" width="80" height="60" as="geometry" />
        </mxCell>
        <mxCell id="AuM9Kr6lnWnWFqrvfArM-55" value="" style="edgeStyle=orthogonalEdgeStyle;rounded=0;orthogonalLoop=1;jettySize=auto;html=1;" parent="1" source="AuM9Kr6lnWnWFqrvfArM-21" target="AuM9Kr6lnWnWFqrvfArM-54" edge="1">
          <mxGeometry relative="1" as="geometry" />
        </mxCell>
        <mxCell id="AuM9Kr6lnWnWFqrvfArM-21" value="Input index" style="whiteSpace=wrap;html=1;" parent="1" vertex="1">
          <mxGeometry x="370" y="510" width="80" height="60" as="geometry" />
        </mxCell>
        <mxCell id="AuM9Kr6lnWnWFqrvfArM-63" value="" style="edgeStyle=orthogonalEdgeStyle;rounded=0;orthogonalLoop=1;jettySize=auto;html=1;" parent="1" source="AuM9Kr6lnWnWFqrvfArM-22" target="AuM9Kr6lnWnWFqrvfArM-62" edge="1">
          <mxGeometry relative="1" as="geometry" />
        </mxCell>
        <mxCell id="AuM9Kr6lnWnWFqrvfArM-22" value="Input index" style="whiteSpace=wrap;html=1;" parent="1" vertex="1">
          <mxGeometry x="370" y="630" width="80" height="60" as="geometry" />
        </mxCell>
        <mxCell id="AuM9Kr6lnWnWFqrvfArM-27" value="" style="edgeStyle=orthogonalEdgeStyle;rounded=0;orthogonalLoop=1;jettySize=auto;html=1;" parent="1" source="w7Bj7k-1pqhqbpeDghRX-7" target="AuM9Kr6lnWnWFqrvfArM-26" edge="1">
          <mxGeometry relative="1" as="geometry">
            <mxPoint x="250" y="180" as="sourcePoint" />
            <mxPoint x="330" y="180" as="targetPoint" />
          </mxGeometry>
        </mxCell>
        <mxCell id="AuM9Kr6lnWnWFqrvfArM-26" value="show patient" style="whiteSpace=wrap;html=1;" parent="1" vertex="1">
          <mxGeometry x="270" y="160" width="40" height="40" as="geometry" />
        </mxCell>
        <mxCell id="AuM9Kr6lnWnWFqrvfArM-29" value="" style="edgeStyle=orthogonalEdgeStyle;rounded=0;orthogonalLoop=1;jettySize=auto;html=1;entryX=0;entryY=0.5;entryDx=0;entryDy=0;" parent="1" source="w7Bj7k-1pqhqbpeDghRX-10" target="AuM9Kr6lnWnWFqrvfArM-28" edge="1">
          <mxGeometry relative="1" as="geometry">
            <mxPoint x="250" y="300" as="sourcePoint" />
            <mxPoint x="370" y="300" as="targetPoint" />
          </mxGeometry>
        </mxCell>
        <mxCell id="AuM9Kr6lnWnWFqrvfArM-28" value="show patient" style="whiteSpace=wrap;html=1;" parent="1" vertex="1">
          <mxGeometry x="297" y="280" width="40" height="40" as="geometry" />
        </mxCell>
        <mxCell id="AuM9Kr6lnWnWFqrvfArM-31" value="" style="edgeStyle=orthogonalEdgeStyle;rounded=0;orthogonalLoop=1;jettySize=auto;html=1;entryX=0;entryY=0.5;entryDx=0;entryDy=0;" parent="1" source="w7Bj7k-1pqhqbpeDghRX-20" target="AuM9Kr6lnWnWFqrvfArM-30" edge="1">
          <mxGeometry relative="1" as="geometry">
            <mxPoint x="250" y="420" as="sourcePoint" />
            <mxPoint x="370" y="420" as="targetPoint" />
          </mxGeometry>
        </mxCell>
        <mxCell id="AuM9Kr6lnWnWFqrvfArM-30" value="show patient" style="whiteSpace=wrap;html=1;" parent="1" vertex="1">
          <mxGeometry x="297" y="400" width="40" height="40" as="geometry" />
        </mxCell>
        <mxCell id="AuM9Kr6lnWnWFqrvfArM-33" value="" style="edgeStyle=orthogonalEdgeStyle;rounded=0;orthogonalLoop=1;jettySize=auto;html=1;entryX=0;entryY=0.5;entryDx=0;entryDy=0;" parent="1" source="w7Bj7k-1pqhqbpeDghRX-22" target="AuM9Kr6lnWnWFqrvfArM-32" edge="1">
          <mxGeometry relative="1" as="geometry">
            <mxPoint x="250" y="540" as="sourcePoint" />
            <mxPoint x="370" y="540" as="targetPoint" />
          </mxGeometry>
        </mxCell>
        <mxCell id="AuM9Kr6lnWnWFqrvfArM-32" value="show patient" style="whiteSpace=wrap;html=1;" parent="1" vertex="1">
          <mxGeometry x="297" y="520" width="40" height="40" as="geometry" />
        </mxCell>
        <mxCell id="AuM9Kr6lnWnWFqrvfArM-34" value="yes" style="text;html=1;align=center;verticalAlign=middle;resizable=0;points=[];autosize=1;strokeColor=none;fillColor=none;" parent="1" vertex="1">
          <mxGeometry x="250" y="390" width="40" height="30" as="geometry" />
        </mxCell>
        <mxCell id="AuM9Kr6lnWnWFqrvfArM-35" value="yes" style="text;html=1;align=center;verticalAlign=middle;resizable=0;points=[];autosize=1;strokeColor=none;fillColor=none;" parent="1" vertex="1">
          <mxGeometry x="250" y="510" width="40" height="30" as="geometry" />
        </mxCell>
        <mxCell id="AuM9Kr6lnWnWFqrvfArM-61" style="edgeStyle=orthogonalEdgeStyle;rounded=0;orthogonalLoop=1;jettySize=auto;html=1;entryX=0;entryY=0.5;entryDx=0;entryDy=0;" parent="1" source="AuM9Kr6lnWnWFqrvfArM-36" target="AuM9Kr6lnWnWFqrvfArM-22" edge="1">
          <mxGeometry relative="1" as="geometry" />
        </mxCell>
        <mxCell id="AuM9Kr6lnWnWFqrvfArM-36" value="show rooms" style="whiteSpace=wrap;html=1;" parent="1" vertex="1">
          <mxGeometry x="297" y="640" width="40" height="40" as="geometry" />
        </mxCell>
        <mxCell id="AuM9Kr6lnWnWFqrvfArM-38" value="yes" style="text;html=1;align=center;verticalAlign=middle;resizable=0;points=[];autosize=1;strokeColor=none;fillColor=none;" parent="1" vertex="1">
          <mxGeometry x="250" y="630" width="40" height="30" as="geometry" />
        </mxCell>
        <mxCell id="AuM9Kr6lnWnWFqrvfArM-43" value="" style="edgeStyle=orthogonalEdgeStyle;rounded=0;orthogonalLoop=1;jettySize=auto;html=1;" parent="1" source="AuM9Kr6lnWnWFqrvfArM-39" target="AuM9Kr6lnWnWFqrvfArM-42" edge="1">
          <mxGeometry relative="1" as="geometry" />
        </mxCell>
        <mxCell id="AuM9Kr6lnWnWFqrvfArM-39" value="input room target" style="whiteSpace=wrap;html=1;" parent="1" vertex="1">
          <mxGeometry x="570" y="270" width="80" height="60" as="geometry" />
        </mxCell>
        <mxCell id="AuM9Kr6lnWnWFqrvfArM-44" style="edgeStyle=orthogonalEdgeStyle;rounded=0;orthogonalLoop=1;jettySize=auto;html=1;entryX=1;entryY=0.25;entryDx=0;entryDy=0;" parent="1" source="AuM9Kr6lnWnWFqrvfArM-42" target="w7Bj7k-1pqhqbpeDghRX-4" edge="1">
          <mxGeometry relative="1" as="geometry">
            <Array as="points">
              <mxPoint x="760" y="250" />
              <mxPoint x="510" y="250" />
              <mxPoint x="510" y="55" />
            </Array>
          </mxGeometry>
        </mxCell>
        <mxCell id="AuM9Kr6lnWnWFqrvfArM-46" value="" style="edgeStyle=orthogonalEdgeStyle;rounded=0;orthogonalLoop=1;jettySize=auto;html=1;" parent="1" source="AuM9Kr6lnWnWFqrvfArM-42" target="AuM9Kr6lnWnWFqrvfArM-45" edge="1">
          <mxGeometry relative="1" as="geometry" />
        </mxCell>
        <mxCell id="AuM9Kr6lnWnWFqrvfArM-42" value="Full?" style="rhombus;whiteSpace=wrap;html=1;" parent="1" vertex="1">
          <mxGeometry x="720" y="260" width="80" height="80" as="geometry" />
        </mxCell>
        <mxCell id="AuM9Kr6lnWnWFqrvfArM-48" style="edgeStyle=orthogonalEdgeStyle;rounded=0;orthogonalLoop=1;jettySize=auto;html=1;" parent="1" source="AuM9Kr6lnWnWFqrvfArM-56" edge="1">
          <mxGeometry relative="1" as="geometry">
            <mxPoint x="1170" y="180" as="targetPoint" />
          </mxGeometry>
        </mxCell>
        <mxCell id="AuM9Kr6lnWnWFqrvfArM-45" value="Update rooms" style="whiteSpace=wrap;html=1;" parent="1" vertex="1">
          <mxGeometry x="840" y="270" width="120" height="60" as="geometry" />
        </mxCell>
        <mxCell id="AuM9Kr6lnWnWFqrvfArM-52" value="" style="edgeStyle=orthogonalEdgeStyle;rounded=0;orthogonalLoop=1;jettySize=auto;html=1;" parent="1" source="AuM9Kr6lnWnWFqrvfArM-49" target="AuM9Kr6lnWnWFqrvfArM-51" edge="1">
          <mxGeometry relative="1" as="geometry" />
        </mxCell>
        <mxCell id="AuM9Kr6lnWnWFqrvfArM-49" value="Input status" style="whiteSpace=wrap;html=1;" parent="1" vertex="1">
          <mxGeometry x="570" y="390" width="80" height="60" as="geometry" />
        </mxCell>
        <mxCell id="AuM9Kr6lnWnWFqrvfArM-53" style="edgeStyle=orthogonalEdgeStyle;rounded=0;orthogonalLoop=1;jettySize=auto;html=1;" parent="1" source="AuM9Kr6lnWnWFqrvfArM-51" edge="1">
          <mxGeometry relative="1" as="geometry">
            <mxPoint x="1170" y="299.9999999999999" as="targetPoint" />
          </mxGeometry>
        </mxCell>
        <mxCell id="AuM9Kr6lnWnWFqrvfArM-51" value="Update Status" style="whiteSpace=wrap;html=1;" parent="1" vertex="1">
          <mxGeometry x="710" y="390" width="80" height="60" as="geometry" />
        </mxCell>
        <mxCell id="AuM9Kr6lnWnWFqrvfArM-59" style="edgeStyle=orthogonalEdgeStyle;rounded=0;orthogonalLoop=1;jettySize=auto;html=1;" parent="1" source="AuM9Kr6lnWnWFqrvfArM-70" edge="1">
          <mxGeometry relative="1" as="geometry">
            <mxPoint x="1170" y="420" as="targetPoint" />
          </mxGeometry>
        </mxCell>
        <mxCell id="AuM9Kr6lnWnWFqrvfArM-54" value="input disease" style="whiteSpace=wrap;html=1;" parent="1" vertex="1">
          <mxGeometry x="570" y="510" width="80" height="60" as="geometry" />
        </mxCell>
        <mxCell id="AuM9Kr6lnWnWFqrvfArM-57" value="" style="edgeStyle=orthogonalEdgeStyle;rounded=0;orthogonalLoop=1;jettySize=auto;html=1;" parent="1" source="AuM9Kr6lnWnWFqrvfArM-45" target="AuM9Kr6lnWnWFqrvfArM-56" edge="1">
          <mxGeometry relative="1" as="geometry">
            <mxPoint x="1170" y="180" as="targetPoint" />
            <mxPoint x="830" y="300" as="sourcePoint" />
          </mxGeometry>
        </mxCell>
        <mxCell id="AuM9Kr6lnWnWFqrvfArM-56" value="show patient" style="whiteSpace=wrap;html=1;" parent="1" vertex="1">
          <mxGeometry x="1030" y="280" width="40" height="40" as="geometry" />
        </mxCell>
        <mxCell id="AuM9Kr6lnWnWFqrvfArM-58" value="show patient" style="whiteSpace=wrap;html=1;" parent="1" vertex="1">
          <mxGeometry x="1030" y="400" width="40" height="40" as="geometry" />
        </mxCell>
        <mxCell id="AuM9Kr6lnWnWFqrvfArM-60" value="show patient" style="whiteSpace=wrap;html=1;" parent="1" vertex="1">
          <mxGeometry x="1030" y="520" width="40" height="40" as="geometry" />
        </mxCell>
        <mxCell id="AuM9Kr6lnWnWFqrvfArM-64" style="edgeStyle=orthogonalEdgeStyle;rounded=0;orthogonalLoop=1;jettySize=auto;html=1;entryX=0.5;entryY=1;entryDx=0;entryDy=0;" parent="1" source="AuM9Kr6lnWnWFqrvfArM-62" target="w7Bj7k-1pqhqbpeDghRX-2" edge="1">
          <mxGeometry relative="1" as="geometry">
            <mxPoint x="90" y="319.9999999999999" as="targetPoint" />
            <Array as="points">
              <mxPoint x="520" y="720" />
              <mxPoint x="80" y="720" />
            </Array>
          </mxGeometry>
        </mxCell>
        <mxCell id="AuM9Kr6lnWnWFqrvfArM-66" value="" style="edgeStyle=orthogonalEdgeStyle;rounded=0;orthogonalLoop=1;jettySize=auto;html=1;" parent="1" source="AuM9Kr6lnWnWFqrvfArM-62" target="AuM9Kr6lnWnWFqrvfArM-65" edge="1">
          <mxGeometry relative="1" as="geometry" />
        </mxCell>
        <mxCell id="AuM9Kr6lnWnWFqrvfArM-62" value="Any?" style="rhombus;whiteSpace=wrap;html=1;" parent="1" vertex="1">
          <mxGeometry x="480" y="620" width="80" height="80" as="geometry" />
        </mxCell>
        <mxCell id="AuM9Kr6lnWnWFqrvfArM-68" value="" style="edgeStyle=orthogonalEdgeStyle;rounded=0;orthogonalLoop=1;jettySize=auto;html=1;" parent="1" source="AuM9Kr6lnWnWFqrvfArM-65" target="AuM9Kr6lnWnWFqrvfArM-67" edge="1">
          <mxGeometry relative="1" as="geometry" />
        </mxCell>
        <mxCell id="AuM9Kr6lnWnWFqrvfArM-65" value="update class" style="whiteSpace=wrap;html=1;" parent="1" vertex="1">
          <mxGeometry x="620" y="630" width="120" height="60" as="geometry" />
        </mxCell>
        <mxCell id="AuM9Kr6lnWnWFqrvfArM-69" style="edgeStyle=orthogonalEdgeStyle;rounded=0;orthogonalLoop=1;jettySize=auto;html=1;" parent="1" source="AuM9Kr6lnWnWFqrvfArM-72" edge="1">
          <mxGeometry relative="1" as="geometry">
            <mxPoint x="1170" y="540" as="targetPoint" />
          </mxGeometry>
        </mxCell>
        <mxCell id="AuM9Kr6lnWnWFqrvfArM-67" value="update max_capacity" style="whiteSpace=wrap;html=1;" parent="1" vertex="1">
          <mxGeometry x="820" y="630" width="120" height="60" as="geometry" />
        </mxCell>
        <mxCell id="AuM9Kr6lnWnWFqrvfArM-71" value="" style="edgeStyle=orthogonalEdgeStyle;rounded=0;orthogonalLoop=1;jettySize=auto;html=1;" parent="1" source="AuM9Kr6lnWnWFqrvfArM-54" target="AuM9Kr6lnWnWFqrvfArM-70" edge="1">
          <mxGeometry relative="1" as="geometry">
            <mxPoint x="1170" y="420" as="targetPoint" />
            <mxPoint x="550" y="540" as="sourcePoint" />
          </mxGeometry>
        </mxCell>
        <mxCell id="AuM9Kr6lnWnWFqrvfArM-70" value="Update Disease" style="whiteSpace=wrap;html=1;" parent="1" vertex="1">
          <mxGeometry x="750" y="510" width="80" height="60" as="geometry" />
        </mxCell>
        <mxCell id="AuM9Kr6lnWnWFqrvfArM-73" value="" style="edgeStyle=orthogonalEdgeStyle;rounded=0;orthogonalLoop=1;jettySize=auto;html=1;" parent="1" source="AuM9Kr6lnWnWFqrvfArM-67" target="AuM9Kr6lnWnWFqrvfArM-72" edge="1">
          <mxGeometry relative="1" as="geometry">
            <mxPoint x="1170" y="540" as="targetPoint" />
            <mxPoint x="940" y="660" as="sourcePoint" />
          </mxGeometry>
        </mxCell>
        <mxCell id="AuM9Kr6lnWnWFqrvfArM-72" value="show rooms" style="whiteSpace=wrap;html=1;" parent="1" vertex="1">
          <mxGeometry x="1030" y="640" width="40" height="40" as="geometry" />
        </mxCell>
        <mxCell id="_s0bzNTLVipCQZFh4Dhi-2" value="" style="edgeStyle=orthogonalEdgeStyle;rounded=0;orthogonalLoop=1;jettySize=auto;html=1;" parent="1" source="AuM9Kr6lnWnWFqrvfArM-19" target="_s0bzNTLVipCQZFh4Dhi-1" edge="1">
          <mxGeometry relative="1" as="geometry">
            <mxPoint x="450" y="300" as="sourcePoint" />
            <mxPoint x="570" y="300" as="targetPoint" />
          </mxGeometry>
        </mxCell>
        <mxCell id="_s0bzNTLVipCQZFh4Dhi-6" style="edgeStyle=orthogonalEdgeStyle;rounded=0;orthogonalLoop=1;jettySize=auto;html=1;" parent="1" source="_s0bzNTLVipCQZFh4Dhi-1" edge="1">
          <mxGeometry relative="1" as="geometry">
            <mxPoint x="430" y="70" as="targetPoint" />
            <Array as="points">
              <mxPoint x="500" y="70" />
            </Array>
          </mxGeometry>
        </mxCell>
        <mxCell id="_s0bzNTLVipCQZFh4Dhi-1" value="any?" style="rhombus;whiteSpace=wrap;html=1;" parent="1" vertex="1">
          <mxGeometry x="470" y="260" width="80" height="80" as="geometry" />
        </mxCell>
        <mxCell id="_s0bzNTLVipCQZFh4Dhi-4" value="" style="edgeStyle=orthogonalEdgeStyle;rounded=0;orthogonalLoop=1;jettySize=auto;html=1;" parent="1" source="AuM9Kr6lnWnWFqrvfArM-20" target="_s0bzNTLVipCQZFh4Dhi-3" edge="1">
          <mxGeometry relative="1" as="geometry">
            <mxPoint x="450" y="420" as="sourcePoint" />
            <mxPoint x="570" y="420" as="targetPoint" />
          </mxGeometry>
        </mxCell>
        <mxCell id="_s0bzNTLVipCQZFh4Dhi-7" style="edgeStyle=orthogonalEdgeStyle;rounded=0;orthogonalLoop=1;jettySize=auto;html=1;" parent="1" source="_s0bzNTLVipCQZFh4Dhi-3" edge="1">
          <mxGeometry relative="1" as="geometry">
            <mxPoint x="480" y="720" as="targetPoint" />
          </mxGeometry>
        </mxCell>
        <mxCell id="_s0bzNTLVipCQZFh4Dhi-3" value="any?" style="rhombus;whiteSpace=wrap;html=1;" parent="1" vertex="1">
          <mxGeometry x="468" y="380" width="80" height="80" as="geometry" />
        </mxCell>
        <mxCell id="_s0bzNTLVipCQZFh4Dhi-8" style="edgeStyle=orthogonalEdgeStyle;rounded=0;orthogonalLoop=1;jettySize=auto;html=1;" parent="1" source="_s0bzNTLVipCQZFh4Dhi-5" edge="1">
          <mxGeometry relative="1" as="geometry">
            <mxPoint x="460" y="720" as="targetPoint" />
            <Array as="points">
              <mxPoint x="460" y="540" />
              <mxPoint x="460" y="655" />
              <mxPoint x="461" y="655" />
              <mxPoint x="461" y="730" />
            </Array>
          </mxGeometry>
        </mxCell>
        <mxCell id="_s0bzNTLVipCQZFh4Dhi-5" value="any?" style="rhombus;whiteSpace=wrap;html=1;" parent="1" vertex="1">
          <mxGeometry x="470" y="500" width="80" height="80" as="geometry" />
        </mxCell>
        <mxCell id="ZYjvEFmRGHpuMJ4ubxgd-1" value="F" style="ellipse;whiteSpace=wrap;html=1;aspect=fixed;" parent="1" vertex="1">
          <mxGeometry x="170" y="740" width="80" height="80" as="geometry" />
        </mxCell>
      </root>
    </mxGraphModel>
  </diagram>
  <diagram id="ul-Imo8Erxxf4uNkLnTA" name="Flowchart Delete Actor Admin">
    <mxGraphModel dx="1244" dy="782" grid="1" gridSize="10" guides="1" tooltips="1" connect="1" arrows="1" fold="1" page="1" pageScale="1" pageWidth="850" pageHeight="1100" math="0" shadow="0">
      <root>
        <mxCell id="0" />
        <mxCell id="1" parent="0" />
        <mxCell id="5FrFJ2yi1Vvl7AaOVirz-1" value="" style="edgeStyle=orthogonalEdgeStyle;rounded=0;orthogonalLoop=1;jettySize=auto;html=1;" parent="1" source="5FrFJ2yi1Vvl7AaOVirz-2" target="5FrFJ2yi1Vvl7AaOVirz-4" edge="1">
          <mxGeometry relative="1" as="geometry" />
        </mxCell>
        <mxCell id="5FrFJ2yi1Vvl7AaOVirz-2" value="D" style="ellipse;whiteSpace=wrap;html=1;aspect=fixed;" parent="1" vertex="1">
          <mxGeometry x="40" y="30" width="80" height="80" as="geometry" />
        </mxCell>
        <mxCell id="5FrFJ2yi1Vvl7AaOVirz-3" value="" style="edgeStyle=orthogonalEdgeStyle;rounded=0;orthogonalLoop=1;jettySize=auto;html=1;" parent="1" source="5FrFJ2yi1Vvl7AaOVirz-4" target="5FrFJ2yi1Vvl7AaOVirz-7" edge="1">
          <mxGeometry relative="1" as="geometry" />
        </mxCell>
        <mxCell id="5FrFJ2yi1Vvl7AaOVirz-4" value="Menu" style="whiteSpace=wrap;html=1;" parent="1" vertex="1">
          <mxGeometry x="150" y="40" width="120" height="60" as="geometry" />
        </mxCell>
        <mxCell id="5FrFJ2yi1Vvl7AaOVirz-5" value="" style="edgeStyle=orthogonalEdgeStyle;rounded=0;orthogonalLoop=1;jettySize=auto;html=1;" parent="1" source="5FrFJ2yi1Vvl7AaOVirz-7" target="5FrFJ2yi1Vvl7AaOVirz-11" edge="1">
          <mxGeometry relative="1" as="geometry" />
        </mxCell>
        <mxCell id="5FrFJ2yi1Vvl7AaOVirz-6" value="" style="edgeStyle=orthogonalEdgeStyle;rounded=0;orthogonalLoop=1;jettySize=auto;html=1;" parent="1" source="5FrFJ2yi1Vvl7AaOVirz-7" target="5FrFJ2yi1Vvl7AaOVirz-14" edge="1">
          <mxGeometry relative="1" as="geometry" />
        </mxCell>
        <mxCell id="5FrFJ2yi1Vvl7AaOVirz-7" value="Delete patient" style="rhombus;whiteSpace=wrap;html=1;" parent="1" vertex="1">
          <mxGeometry x="170" y="140" width="80" height="80" as="geometry" />
        </mxCell>
        <mxCell id="5FrFJ2yi1Vvl7AaOVirz-8" value="" style="edgeStyle=orthogonalEdgeStyle;rounded=0;orthogonalLoop=1;jettySize=auto;html=1;" parent="1" source="5FrFJ2yi1Vvl7AaOVirz-11" target="5FrFJ2yi1Vvl7AaOVirz-12" edge="1">
          <mxGeometry relative="1" as="geometry" />
        </mxCell>
        <mxCell id="5FrFJ2yi1Vvl7AaOVirz-9" value="" style="edgeStyle=orthogonalEdgeStyle;rounded=0;orthogonalLoop=1;jettySize=auto;html=1;" parent="1" source="5FrFJ2yi1Vvl7AaOVirz-11" target="5FrFJ2yi1Vvl7AaOVirz-16" edge="1">
          <mxGeometry relative="1" as="geometry" />
        </mxCell>
        <mxCell id="5FrFJ2yi1Vvl7AaOVirz-10" style="edgeStyle=orthogonalEdgeStyle;rounded=0;orthogonalLoop=1;jettySize=auto;html=1;entryX=0;entryY=0.75;entryDx=0;entryDy=0;" parent="1" source="5FrFJ2yi1Vvl7AaOVirz-11" target="5FrFJ2yi1Vvl7AaOVirz-4" edge="1">
          <mxGeometry relative="1" as="geometry">
            <Array as="points">
              <mxPoint x="130" y="300" />
              <mxPoint x="130" y="85" />
            </Array>
          </mxGeometry>
        </mxCell>
        <mxCell id="5FrFJ2yi1Vvl7AaOVirz-11" value="Delete room" style="rhombus;whiteSpace=wrap;html=1;" parent="1" vertex="1">
          <mxGeometry x="170" y="260" width="80" height="80" as="geometry" />
        </mxCell>
        <mxCell id="5FrFJ2yi1Vvl7AaOVirz-12" value="F" style="ellipse;whiteSpace=wrap;html=1;" parent="1" vertex="1">
          <mxGeometry x="170" y="390" width="80" height="80" as="geometry" />
        </mxCell>
        <mxCell id="pcXOa_ICU_rk77Ojrnjl-2" value="" style="edgeStyle=orthogonalEdgeStyle;rounded=0;orthogonalLoop=1;jettySize=auto;html=1;" parent="1" source="5FrFJ2yi1Vvl7AaOVirz-14" target="pcXOa_ICU_rk77Ojrnjl-1" edge="1">
          <mxGeometry relative="1" as="geometry" />
        </mxCell>
        <mxCell id="5FrFJ2yi1Vvl7AaOVirz-14" value="input index" style="whiteSpace=wrap;html=1;" parent="1" vertex="1">
          <mxGeometry x="305" y="150" width="120" height="60" as="geometry" />
        </mxCell>
        <mxCell id="pcXOa_ICU_rk77Ojrnjl-4" value="" style="edgeStyle=orthogonalEdgeStyle;rounded=0;orthogonalLoop=1;jettySize=auto;html=1;" parent="1" source="5FrFJ2yi1Vvl7AaOVirz-16" target="pcXOa_ICU_rk77Ojrnjl-3" edge="1">
          <mxGeometry relative="1" as="geometry" />
        </mxCell>
        <mxCell id="5FrFJ2yi1Vvl7AaOVirz-16" value="input index" style="whiteSpace=wrap;html=1;" parent="1" vertex="1">
          <mxGeometry x="305" y="270" width="120" height="60" as="geometry" />
        </mxCell>
        <mxCell id="5FrFJ2yi1Vvl7AaOVirz-17" value="yes" style="text;html=1;align=center;verticalAlign=middle;resizable=0;points=[];autosize=1;strokeColor=none;fillColor=none;" parent="1" vertex="1">
          <mxGeometry x="250" y="150" width="40" height="30" as="geometry" />
        </mxCell>
        <mxCell id="5FrFJ2yi1Vvl7AaOVirz-18" value="yes" style="text;html=1;align=center;verticalAlign=middle;resizable=0;points=[];autosize=1;strokeColor=none;fillColor=none;" parent="1" vertex="1">
          <mxGeometry x="250" y="270" width="40" height="30" as="geometry" />
        </mxCell>
        <mxCell id="5FrFJ2yi1Vvl7AaOVirz-19" value="no" style="text;html=1;align=center;verticalAlign=middle;resizable=0;points=[];autosize=1;strokeColor=none;fillColor=none;" parent="1" vertex="1">
          <mxGeometry x="170" y="220" width="40" height="30" as="geometry" />
        </mxCell>
        <mxCell id="5FrFJ2yi1Vvl7AaOVirz-24" value="no" style="text;html=1;align=center;verticalAlign=middle;resizable=0;points=[];autosize=1;strokeColor=none;fillColor=none;" parent="1" vertex="1">
          <mxGeometry x="130" y="270" width="40" height="30" as="geometry" />
        </mxCell>
        <mxCell id="pcXOa_ICU_rk77Ojrnjl-5" style="edgeStyle=orthogonalEdgeStyle;rounded=0;orthogonalLoop=1;jettySize=auto;html=1;entryX=1;entryY=0.5;entryDx=0;entryDy=0;" parent="1" source="pcXOa_ICU_rk77Ojrnjl-1" target="5FrFJ2yi1Vvl7AaOVirz-4" edge="1">
          <mxGeometry relative="1" as="geometry">
            <Array as="points">
              <mxPoint x="500" y="70" />
            </Array>
          </mxGeometry>
        </mxCell>
        <mxCell id="pcXOa_ICU_rk77Ojrnjl-8" value="" style="edgeStyle=orthogonalEdgeStyle;rounded=0;orthogonalLoop=1;jettySize=auto;html=1;" parent="1" source="pcXOa_ICU_rk77Ojrnjl-1" target="pcXOa_ICU_rk77Ojrnjl-7" edge="1">
          <mxGeometry relative="1" as="geometry" />
        </mxCell>
        <mxCell id="pcXOa_ICU_rk77Ojrnjl-1" value="Any?" style="rhombus;whiteSpace=wrap;html=1;" parent="1" vertex="1">
          <mxGeometry x="460" y="140" width="80" height="80" as="geometry" />
        </mxCell>
        <mxCell id="pcXOa_ICU_rk77Ojrnjl-6" style="edgeStyle=orthogonalEdgeStyle;rounded=0;orthogonalLoop=1;jettySize=auto;html=1;entryX=0.5;entryY=1;entryDx=0;entryDy=0;" parent="1" source="pcXOa_ICU_rk77Ojrnjl-3" target="5FrFJ2yi1Vvl7AaOVirz-2" edge="1">
          <mxGeometry relative="1" as="geometry">
            <Array as="points">
              <mxPoint x="500" y="370" />
              <mxPoint x="80" y="370" />
            </Array>
          </mxGeometry>
        </mxCell>
        <mxCell id="pcXOa_ICU_rk77Ojrnjl-15" value="" style="edgeStyle=orthogonalEdgeStyle;rounded=0;orthogonalLoop=1;jettySize=auto;html=1;" parent="1" source="pcXOa_ICU_rk77Ojrnjl-3" target="pcXOa_ICU_rk77Ojrnjl-14" edge="1">
          <mxGeometry relative="1" as="geometry" />
        </mxCell>
        <mxCell id="pcXOa_ICU_rk77Ojrnjl-3" value="occupants?" style="rhombus;whiteSpace=wrap;html=1;" parent="1" vertex="1">
          <mxGeometry x="460" y="260" width="80" height="80" as="geometry" />
        </mxCell>
        <mxCell id="pcXOa_ICU_rk77Ojrnjl-10" value="" style="edgeStyle=orthogonalEdgeStyle;rounded=0;orthogonalLoop=1;jettySize=auto;html=1;" parent="1" source="pcXOa_ICU_rk77Ojrnjl-7" target="pcXOa_ICU_rk77Ojrnjl-9" edge="1">
          <mxGeometry relative="1" as="geometry" />
        </mxCell>
        <mxCell id="pcXOa_ICU_rk77Ojrnjl-7" value="Delete patient name on occupant" style="whiteSpace=wrap;html=1;" parent="1" vertex="1">
          <mxGeometry x="580" y="150" width="120" height="60" as="geometry" />
        </mxCell>
        <mxCell id="pcXOa_ICU_rk77Ojrnjl-12" value="" style="edgeStyle=orthogonalEdgeStyle;rounded=0;orthogonalLoop=1;jettySize=auto;html=1;" parent="1" source="pcXOa_ICU_rk77Ojrnjl-9" target="pcXOa_ICU_rk77Ojrnjl-11" edge="1">
          <mxGeometry relative="1" as="geometry" />
        </mxCell>
        <mxCell id="pcXOa_ICU_rk77Ojrnjl-9" value="delete patient on dict" style="whiteSpace=wrap;html=1;" parent="1" vertex="1">
          <mxGeometry x="740" y="150" width="120" height="60" as="geometry" />
        </mxCell>
        <mxCell id="pcXOa_ICU_rk77Ojrnjl-13" style="edgeStyle=orthogonalEdgeStyle;rounded=0;orthogonalLoop=1;jettySize=auto;html=1;" parent="1" source="pcXOa_ICU_rk77Ojrnjl-11" edge="1">
          <mxGeometry relative="1" as="geometry">
            <mxPoint x="500" y="70" as="targetPoint" />
            <Array as="points">
              <mxPoint x="970" y="80" />
              <mxPoint x="501" y="80" />
            </Array>
          </mxGeometry>
        </mxCell>
        <mxCell id="pcXOa_ICU_rk77Ojrnjl-11" value="reset index" style="whiteSpace=wrap;html=1;" parent="1" vertex="1">
          <mxGeometry x="910" y="150" width="120" height="60" as="geometry" />
        </mxCell>
        <mxCell id="pcXOa_ICU_rk77Ojrnjl-19" style="edgeStyle=orthogonalEdgeStyle;rounded=0;orthogonalLoop=1;jettySize=auto;html=1;entryX=0.5;entryY=1;entryDx=0;entryDy=0;" parent="1" source="pcXOa_ICU_rk77Ojrnjl-14" target="pcXOa_ICU_rk77Ojrnjl-11" edge="1">
          <mxGeometry relative="1" as="geometry" />
        </mxCell>
        <mxCell id="pcXOa_ICU_rk77Ojrnjl-14" value="Delete rooms on dict" style="whiteSpace=wrap;html=1;" parent="1" vertex="1">
          <mxGeometry x="580" y="270" width="120" height="60" as="geometry" />
        </mxCell>
        <mxCell id="pcXOa_ICU_rk77Ojrnjl-16" value="yes" style="text;html=1;align=center;verticalAlign=middle;resizable=0;points=[];autosize=1;strokeColor=none;fillColor=none;" parent="1" vertex="1">
          <mxGeometry x="530" y="150" width="40" height="30" as="geometry" />
        </mxCell>
        <mxCell id="pcXOa_ICU_rk77Ojrnjl-17" value="yes" style="text;html=1;align=center;verticalAlign=middle;resizable=0;points=[];autosize=1;strokeColor=none;fillColor=none;" parent="1" vertex="1">
          <mxGeometry x="500" y="340" width="40" height="30" as="geometry" />
        </mxCell>
        <mxCell id="pcXOa_ICU_rk77Ojrnjl-18" value="No" style="text;html=1;align=center;verticalAlign=middle;resizable=0;points=[];autosize=1;strokeColor=none;fillColor=none;" parent="1" vertex="1">
          <mxGeometry x="530" y="270" width="40" height="30" as="geometry" />
        </mxCell>
      </root>
    </mxGraphModel>
  </diagram>
</mxfile>
